<?xml version="1.0" encoding="UTF-8"?>
<svg width="12px" height="16px" viewBox="0 0 12 16" version="1.1" xmlns="http://www.w3.org/2000/svg" xmlns:xlink="http://www.w3.org/1999/xlink">
    <!-- Generator: Sketch 45.2 (43514) - http://www.bohemiancoding.com/sketch -->
    <title>Group Copy</title>
    <desc>Created with Sketch.</desc>
    <defs></defs>
    <g id="Calls" stroke="none" stroke-width="1" fill="none" fill-rule="evenodd">
        <g id="NEW-CALL" transform="translate(-193.000000, -308.000000)" fill="#565F71">
            <g id="Group-2" transform="translate(193.000000, 308.000000)">
                <g id="Group-Copy" transform="translate(0.500000, 0.000000)">
                    <path d="M8.5,15 L2.5,15 L2.5,11.5 C2.5,10.119 3.6755,9 5.125,9 L5.875,9 C7.3245,9 8.5,10.119 8.5,11.5 L8.5,15 L8.5,15 Z M2.5,4.5 L2.5,1 L8.5,1 L8.5,4.5 C8.5,5.881 7.3245,7 5.875,7 L5.125,7 C3.6755,7 2.5,5.881 2.5,4.5 L2.5,4.5 Z M10.5,15 L9.5,15 L9.5,11.5 C9.5,9.567 7.933,8 6,8 C7.933,8 9.5,6.433 9.5,4.5 L9.5,1 L10.5,1 C10.7765,1 11,0.7765 11,0.5 C11,0.224 10.7765,0 10.5,0 L0.5,0 C0.2235,0 0,0.224 0,0.5 C0,0.7765 0.2235,1 0.5,1 L1.5,1 L1.5,4.5 C1.5,6.433 3.067,8 5,8 C3.067,8 1.5,9.567 1.5,11.5 L1.5,15 L0.5,15 C0.2235,15 0,15.224 0,15.5 C0,15.7765 0.2235,16 0.5,16 L10.5,16 C10.7765,16 11,15.7765 11,15.5 C11,15.224 10.7765,15 10.5,15 L10.5,15 Z" id="Fill-163"></path>
                    <polygon id="Path-63" points="2.0862991 0.0928571429 9.06311789 0 8.97414759 4.42301587 8.22318668 6.3547619 6.92757282 7.4 5.4001204 8 3.53509662 7.26746032 2.43470164 5.48134921 1.90758485 3.58928571"></polygon>
                </g>
            </g>
        </g>
    </g>
</svg>