<?xml version="1.0" encoding="utf-8"?>
<!-- Generator: Adobe Illustrator 22.0.1, SVG Export Plug-In . SVG Version: 6.00 Build 0)  -->
<svg version="1.1" id="Layer_1" xmlns="http://www.w3.org/2000/svg" xmlns:xlink="http://www.w3.org/1999/xlink" x="0px" y="0px"
	 viewBox="0 0 13.8 17.8" style="enable-background:new 0 0 13.8 17.8;" xml:space="preserve">
<style type="text/css">
	.st0{fill:#C4C4C4;}
</style>
<path class="st0" d="M13.8,8.5c0-0.6-0.3-1.1-0.9-1.3c-0.2-0.1-0.3-0.1-0.5-0.1h-0.2V5.3C12.2,2.4,9.8,0,6.9,0c0,0,0,0,0,0
	C4,0,1.7,2.4,1.7,5.3V7H1.6C0.5,7.1,0,7.8,0,8.8c0,2.5,0,4.9,0,7.4c0,1,0.6,1.6,1.6,1.6c3,0,6,0,9,0c0.6,0,1.2,0,1.8,0
	c0.8,0,1.4-0.6,1.4-1.4C13.8,13.7,13.8,11.1,13.8,8.5z M7.8,12.7c-0.1,0.1-0.2,0.3-0.2,0.4c0,0.5,0,1.1,0,1.6c0,0.5-0.4,0.8-0.9,0.7
	c-0.2-0.1-0.4-0.3-0.4-0.6c0-0.3,0-0.6,0-0.9c0,0,0,0,0,0c0-0.3,0-0.6,0-0.8c0-0.2-0.1-0.3-0.2-0.4c-0.5-0.4-0.6-1-0.4-1.6
	c0.3-0.6,0.9-0.9,1.5-0.7c0.6,0.2,1,0.7,1,1.3C8.3,12.1,8.1,12.4,7.8,12.7z M10,7c-2,0-4,0-6,0c0,0,0,0,0,0H3.7V5.3
	C3.7,3.5,5.1,2,6.9,2c1.8,0,3.2,1.5,3.2,3.3V7L10,7C10,7,10,7,10,7z"/>
</svg>
