<?xml version="1.0" encoding="utf-8"?>
<!-- Generator: Adobe Illustrator 22.0.1, SVG Export Plug-In . SVG Version: 6.00 Build 0)  -->
<svg version="1.1" id="Layer_1" xmlns="http://www.w3.org/2000/svg" xmlns:xlink="http://www.w3.org/1999/xlink" x="0px" y="0px"
	 viewBox="0 0 261.1 139.5" style="enable-background:new 0 0 261.1 139.5;" xml:space="preserve">
<style type="text/css">
	.st0{clip-path:url(#SVGID_2_);fill:#0095A4;}
	.st1{clip-path:url(#SVGID_2_);fill:#07074E;}
	.st2{clip-path:url(#SVGID_2_);fill:#0295A4;}
	.st3{clip-path:url(#SVGID_2_);fill:#007DAC;}
	.st4{clip-path:url(#SVGID_2_);fill:#005B70;}
	.st5{clip-path:url(#SVGID_2_);fill:#87CBB9;}
</style>
<g>
	<defs>
		<rect id="SVGID_1_" width="261.1" height="139.5"/>
	</defs>
	<clipPath id="SVGID_2_">
		<use xlink:href="#SVGID_1_"  style="overflow:visible;"/>
	</clipPath>
	<path class="st0" d="M6.6,127.3v1.1c-1.1-0.6-2.1-1-2.9-1c-0.8,0-1.4,0.2-1.9,0.7c-0.5,0.5-0.8,1-0.8,1.7c0,0.5,0.2,0.9,0.5,1.3
		c0.3,0.4,0.9,0.8,1.9,1.1c1,0.4,1.7,0.7,2.1,0.9c0.4,0.2,0.8,0.6,1.1,1.1c0.3,0.5,0.5,1.1,0.5,1.8c0,1-0.4,1.8-1.1,2.5
		c-0.7,0.7-1.6,1-2.6,1c-1.1,0-2.1-0.4-3.3-1.1v-1.2c1.2,0.9,2.3,1.4,3.2,1.4c0.8,0,1.4-0.2,1.9-0.7s0.8-1.1,0.8-1.8
		c0-0.5-0.2-1-0.5-1.5c-0.3-0.4-1-0.8-2-1.2c-1-0.4-1.7-0.7-2.1-0.9c-0.4-0.2-0.8-0.6-1.1-1c-0.3-0.4-0.4-1-0.4-1.7
		c0-0.9,0.4-1.7,1.1-2.4c0.7-0.7,1.6-1,2.6-1C4.7,126.5,5.6,126.8,6.6,127.3"/>
	<polygon class="st0" points="29.3,126.7 29.3,127.5 24.6,127.5 24.6,139.4 23.6,139.4 23.6,127.5 18.8,127.5 18.8,126.7 	"/>
	<path class="st0" d="M50.7,126.7h1v6.9c0,1.9-0.5,3.4-1.5,4.4c-1,1-2.3,1.5-3.8,1.5c-1.6,0-2.8-0.5-3.8-1.5c-1-1-1.5-2.4-1.5-4.2
		v-7.2h1v7.1c0,1.5,0.4,2.7,1.2,3.6c0.8,0.9,1.8,1.3,3.1,1.3c1.3,0,2.3-0.4,3.1-1.3c0.8-0.9,1.2-2.1,1.2-3.7V126.7z"/>
	<path class="st0" d="M63.3,126.7h4.5c2.3,0,4,0.6,5.2,1.8c1.2,1.2,1.8,2.7,1.8,4.6c0,1.8-0.6,3.4-1.8,4.6c-1.2,1.2-2.8,1.8-5,1.8
		h-4.6V126.7z M64.3,127.5v11.1h3.6c1.6,0,3-0.5,4.1-1.5c1.1-1,1.6-2.4,1.6-4c0-1.6-0.5-3-1.6-4c-1.1-1-2.5-1.5-4.2-1.5H64.3z"/>
	<polygon class="st0" points="93.4,126.7 93.4,127.5 87.3,127.5 87.3,132.6 93.1,132.6 93.1,133.4 87.3,133.4 87.3,138.6 
		93.4,138.6 93.4,139.4 86.3,139.4 86.3,126.7 	"/>
	<polygon class="st0" points="116.6,126.7 116.6,139.4 115.7,139.4 106.1,128.3 106.1,139.4 105.1,139.4 105.1,126.7 105.9,126.7 
		115.6,137.8 115.6,126.7 	"/>
	<polygon class="st0" points="138.7,126.7 138.7,127.5 134,127.5 134,139.4 133,139.4 133,127.5 128.2,127.5 128.2,126.7 	"/>
	<polygon class="st0" points="160.7,126.7 160.7,138.6 167,138.6 167,139.4 159.7,139.4 159.7,126.7 	"/>
	<rect x="178.7" y="126.7" class="st0" width="1" height="12.7"/>
	<polygon class="st0" points="202.3,126.7 196.9,139.5 196.6,139.5 191.3,126.7 192.3,126.7 196.8,137.4 201.3,126.7 	"/>
	<rect x="213.9" y="126.7" class="st0" width="1" height="12.7"/>
	<polygon class="st0" points="238,126.7 238,139.4 237.2,139.4 227.6,128.3 227.6,139.4 226.6,139.4 226.6,126.7 227.4,126.7 
		237,137.8 237,126.7 	"/>
	<path class="st0" d="M260.9,127.6v1.1c-1.5-0.9-3-1.3-4.5-1.3c-1.6,0-2.9,0.5-4,1.6c-1.1,1.1-1.6,2.4-1.6,4c0,1.6,0.5,2.9,1.6,4
		c1.1,1.1,2.5,1.6,4.3,1.6c1.3,0,2.5-0.3,3.5-0.8v-3.4h-2.7v-0.8h3.7v4.9c-1.5,0.7-3,1.1-4.5,1.1c-2,0-3.6-0.6-4.9-1.9
		c-1.3-1.2-2-2.8-2-4.7c0-1.9,0.6-3.4,1.9-4.6c1.3-1.2,2.9-1.9,4.9-1.9C257.9,126.5,259.3,126.9,260.9,127.6"/>
	<path class="st0" d="M7.1,98.2c1.8,0,3.4,0.5,4.5,1.4c1.2,0.9,1.7,2.2,1.7,3.7c0,1-0.3,1.9-0.9,2.7c-0.6,0.8-1.4,1.4-2.6,1.8
		c0.6,0.3,1.2,0.7,1.7,1.3c0.5,0.5,1.1,1.4,1.8,2.7c1.2,2.2,2.1,3.7,2.7,4.6h-4.2c-0.3-0.4-0.7-1-1.2-1.9c-1.1-1.9-1.9-3.3-2.4-3.9
		c-0.5-0.7-1-1.2-1.5-1.4c-0.5-0.3-1-0.4-1.6-0.4H3.8v7.7H0V98.2H7.1z M6.2,106c1,0,1.8-0.2,2.3-0.7c0.6-0.5,0.9-1.1,0.9-1.9
		c0-0.8-0.3-1.5-0.8-1.9c-0.6-0.4-1.4-0.6-2.4-0.6H3.8v5.1H6.2z"/>
	<polygon class="st0" points="42.1,98.2 42.1,101 32.9,101 32.9,105.8 41.5,105.8 41.5,108.5 32.9,108.5 32.9,113.7 42.1,113.7 
		42.1,116.5 29.1,116.5 29.1,98.2 	"/>
	<path class="st0" d="M61.7,98c1.9,0,3.8,0.4,5.5,1.3v3.1c-2-1.1-3.8-1.7-5.4-1.7c-1,0-1.7,0.2-2.2,0.5c-0.5,0.3-0.8,0.8-0.8,1.4
		c0,0.7,0.5,1.3,1.5,1.9c0.3,0.2,1.4,0.7,3.3,1.5c1.6,0.7,2.8,1.5,3.5,2.4c0.7,0.9,1.1,1.9,1.1,3.1c0,1.6-0.6,2.8-1.8,3.8
		c-1.2,1-2.8,1.4-4.7,1.4c-1.3,0-2.3-0.1-3.2-0.4c-0.9-0.3-1.9-0.7-3-1.3v-3.5c2.1,1.6,4.1,2.4,5.9,2.4c0.9,0,1.7-0.2,2.3-0.6
		c0.6-0.4,0.9-0.9,0.9-1.5c0-0.8-0.5-1.5-1.5-2.1c-0.8-0.4-1.9-0.9-3.2-1.5c-1.5-0.7-2.7-1.4-3.5-2.3c-0.8-0.9-1.1-1.9-1.1-3
		c0-1.5,0.6-2.8,1.8-3.7C58.1,98.4,59.7,98,61.7,98"/>
	<path class="st1" d="M88.6,98.2c1.8,0,3.3,0.5,4.5,1.5c1.1,1,1.7,2.3,1.7,3.8c0,1.6-0.6,2.9-1.7,3.8c-1.2,1-2.7,1.5-4.6,1.5h-3.7
		v7.7H81V98.2H88.6z M87.6,106.1c1,0,1.8-0.2,2.4-0.6c0.6-0.4,0.9-1.1,0.9-1.9c0-1.7-1.2-2.5-3.5-2.5h-2.6v5.1H87.6z"/>
	<path class="st1" d="M111.5,98.2v10.6c0,1.1,0.2,2,0.5,2.6c0.3,0.6,0.9,1.2,1.7,1.6c0.8,0.4,1.7,0.6,2.8,0.6c1.2,0,2.2-0.2,3-0.6
		c0.8-0.4,1.4-0.9,1.8-1.6c0.4-0.7,0.6-1.6,0.6-2.8V98.2h3.8v10.9c0,2.5-0.8,4.3-2.4,5.7c-1.6,1.3-3.8,2-6.7,2
		c-1.8,0-3.4-0.3-4.7-0.9c-1.3-0.6-2.4-1.5-3.1-2.6c-0.7-1.1-1.1-2.5-1.1-4v-11H111.5z"/>
	<path class="st1" d="M145.7,98.2c1.8,0,3.3,0.4,4.4,1.3c1.1,0.9,1.7,2,1.7,3.3c0,0.8-0.2,1.6-0.7,2.2c-0.5,0.6-1.2,1.1-2.1,1.5v0.2
		c1.4,0.3,2.4,0.9,3.2,1.7c0.8,0.9,1.1,1.8,1.1,3c0,1-0.3,1.9-0.8,2.7c-0.6,0.8-1.3,1.4-2.3,1.8c-1,0.4-2.2,0.6-3.5,0.6h-8.2V98.2
		H145.7z M144.7,105.8c1,0,1.8-0.2,2.4-0.7c0.6-0.4,0.9-1.1,0.9-1.9c0-0.7-0.3-1.3-0.8-1.7c-0.5-0.4-1.2-0.6-2.1-0.6h-2.7v4.8H144.7
		z M145.6,113.7c1.3,0,2.3-0.2,2.9-0.7c0.7-0.4,1-1.1,1-2c0-0.8-0.3-1.4-1-1.8c-0.7-0.4-1.5-0.7-2.6-0.7h-3.6v5.2H145.6z"/>
	<polygon class="st1" points="170,98.2 170,113.7 179.5,113.7 179.5,116.5 166.2,116.5 166.2,98.2 	"/>
	<rect x="192.6" y="98.2" class="st1" width="3.8" height="18.3"/>
	<path class="st1" d="M220.4,98c1.1,0,2.2,0.1,3.3,0.4c1.1,0.2,2.2,0.6,3.5,1.2v3.3c-1.2-0.6-2.3-1.1-3.4-1.4
		c-1-0.3-2.1-0.4-3.2-0.4c-1.4,0-2.7,0.3-3.8,0.8c-1.1,0.5-2,1.3-2.6,2.3c-0.6,1-0.9,2.1-0.9,3.3c0,1.2,0.3,2.3,0.9,3.3
		c0.6,1,1.5,1.7,2.6,2.2c1.1,0.5,2.4,0.8,3.8,0.8c1.1,0,2.1-0.1,3.1-0.4c1-0.3,2.2-0.8,3.7-1.6v3.3c-1.3,0.6-2.5,1.1-3.5,1.3
		c-1.1,0.3-2.3,0.4-3.7,0.4c-2.1,0-3.9-0.4-5.6-1.1c-1.6-0.8-2.9-1.9-3.9-3.3c-0.9-1.4-1.4-3-1.4-4.7c0-1.8,0.5-3.5,1.4-5
		c1-1.5,2.3-2.6,4-3.4C216.4,98.4,218.3,98,220.4,98"/>
	<path class="st1" d="M252.4,98.2l8.7,18.3h-4l-2-4.4h-8.7l-1.9,4.4h-4l8.1-18.3H252.4z M247.4,109.4h6.4l-3.3-7.2L247.4,109.4z"/>
	<path class="st2" d="M168,68.1c0,3.4-2.8,6.2-6.2,6.2h-11.1c-3.4,0-6.2-2.8-6.2-6.2V57.2c0-3.4,2.8-6.2,6.2-6.2h11.1
		c3.4,0,6.2,2.8,6.2,6.2V68.1z"/>
	<path class="st0" d="M168,68.1c0,3.4-2.8,6.2-6.2,6.2h-11.1c-3.4,0-6.2-2.8-6.2-6.2V57.2c0-3.4,2.8-6.2,6.2-6.2h11.1
		c3.4,0,6.2,2.8,6.2,6.2V68.1z"/>
	<path class="st1" d="M93,6.2C93,2.8,95.8,0,99.2,0h11.1c3.4,0,6.2,2.8,6.2,6.2l0,10.9c0,3.4-2.8,6.2-6.2,6.2H99.2
		c-3.4,0-6.2-2.8-6.2-6.2V6.2z"/>
	<path class="st3" d="M167.9,17.1c0,3.4-2.8,6.2-6.2,6.2h-11.1c-3.4,0-6.2-2.8-6.2-6.2V6.2c0-3.4,2.8-6.2,6.2-6.2h11.1
		c3.4,0,6.2,2.8,6.2,6.2V17.1z"/>
	<path class="st4" d="M116.5,68.1c0,3.4-2.8,6.2-6.2,6.2H99.2c-3.4,0-6.2-2.8-6.2-6.2V57.2c0-3.4,2.8-6.2,6.2-6.2h11.1
		c3.4,0,6.2,2.8,6.2,6.2V68.1z"/>
	<path class="st4" d="M142.3,17.1c0,3.4-2.8,6.2-6.2,6.2H125c-3.4,0-6.2-2.8-6.2-6.2V6.2c0-3.4,2.8-6.2,6.2-6.2h11.1
		c3.4,0,6.2,2.8,6.2,6.2V17.1z"/>
	<path class="st5" d="M142.3,42.7c0,3.4-2.8,6.2-6.2,6.2H125c-3.4,0-6.2-2.8-6.2-6.2V31.8c0-3.4,2.8-6.2,6.2-6.2h11.1
		c3.4,0,6.2,2.8,6.2,6.2V42.7z"/>
	<path class="st0" d="M116.5,42.7c0,3.4-2.8,6.2-6.2,6.2H99.2c-3.4,0-6.2-2.8-6.2-6.2V31.8c0-3.4,2.8-6.2,6.2-6.2h11.1
		c3.4,0,6.2,2.8,6.2,6.2V42.7z"/>
</g>
</svg>
