<?xml version="1.0" encoding="utf-8"?>
<!-- Generator: Adobe Illustrator 22.0.1, SVG Export Plug-In . SVG Version: 6.00 Build 0)  -->
<svg version="1.1" id="Layer_1" xmlns="http://www.w3.org/2000/svg" xmlns:xlink="http://www.w3.org/1999/xlink" x="0px" y="0px"
	 viewBox="0 0 27.3 18.5" style="enable-background:new 0 0 27.3 18.5;" xml:space="preserve">
<style type="text/css">
	.st0{fill:#C4C4C4;}
</style>
<g>
	<path class="st0" d="M0,1.8C0.9,2.6,1.7,3.3,2.6,4C6,6.9,9.4,9.8,12.8,12.7c0.5,0.4,1.2,0.4,1.7,0c4.1-3.5,8.2-7,12.3-10.5
		C27,2.1,27.2,2,27.3,1.8v13.7c0,1.6-1.3,3-3,3H3c-1.6,0-3-1.3-3-3V1.8z"/>
	<path class="st0" d="M0.9,0c8.5,0,17,0,25.5,0c-4.3,3.7-8.5,7.3-12.8,10.9C9.4,7.3,5.2,3.7,0.9,0z"/>
</g>
</svg>
