<?xml version="1.0" encoding="utf-8"?>
<!-- Generator: Adobe Illustrator 22.0.1, SVG Export Plug-In . SVG Version: 6.00 Build 0)  -->
<svg version="1.1" id="Layer_1" xmlns="http://www.w3.org/2000/svg" xmlns:xlink="http://www.w3.org/1999/xlink" x="0px" y="0px"
	 viewBox="0 0 326.2 267.5" style="enable-background:new 0 0 326.2 267.5;" xml:space="preserve">
<style type="text/css">
	.st0{fill:none;stroke:#7BBC9B;stroke-miterlimit:10;}
	.st1{fill:#3E8584;}
	.st2{fill:#7BBC9B;}
	.st3{fill:#6EA98B;}
	.st4{fill:#A9DAAA;}
	.st5{opacity:0.1;}
	.st6{fill:#1795A2;}
	.st7{fill:#8AC9BA;}
	.st8{clip-path:url(#SVGID_2_);fill:#636363;}
	.st9{opacity:0.1;clip-path:url(#SVGID_2_);}
	.st10{clip-path:url(#SVGID_2_);fill:#997C68;}
	.st11{clip-path:url(#SVGID_2_);fill:#EAF5F2;}
	.st12{clip-path:url(#SVGID_2_);fill:#333333;}
	.st13{clip-path:url(#SVGID_2_);}
	.st14{clip-path:url(#SVGID_2_);fill:#B2B2BD;}
	.st15{clip-path:url(#SVGID_2_);fill:#FFFFFF;}
	.st16{clip-path:url(#SVGID_2_);fill:#8AC9BA;}
	.st17{clip-path:url(#SVGID_4_);fill:#E4EAE8;}
	.st18{clip-path:url(#SVGID_4_);fill:#454D5A;}
	.st19{clip-path:url(#SVGID_4_);fill:#909190;}
	.st20{clip-path:url(#SVGID_4_);fill:#979797;}
	.st21{clip-path:url(#SVGID_4_);fill:#FFFFFF;}
	.st22{fill:#387776;}
	.st23{fill:#C60D05;}
	.st24{fill:#B74848;}
	.st25{fill:#E55555;}
	.st26{fill:#A09E9F;}
	.st27{fill:#E3E3E3;}
	.st28{fill:#C0C2C5;}
	.st29{fill:#C9C8C7;}
	.st30{fill:#BBBBBB;}
	.st31{fill:#B8B4B3;}
	.st32{fill:#997C68;}
	.st33{fill:#EAF5F2;}
	.st34{fill:#07074D;}
</style>
<g>
	<path class="st0" d="M255.1,117.6c0,0-23.6,74.3-33.1,89.7"/>
	<path class="st1" d="M251.6,126.7c0,0-8.7-13.6-8.2-29.3c0.6-15.7,13.4-17.1,21.3-27.4c7.8-10.3,13.7-23.9,13.7-23.9
		s1.7,17.3-8.9,29.1c-10.7,11.8-20.4,17.5-19.4,32C251.1,121.8,251.6,126.7,251.6,126.7z"/>
	<path class="st2" d="M264.8,0c0,0-20.4,17.1-19.2,47.2s13.2,37.9,7.5,76.7c0,0,11.7-14.4,11.7-32.2S253,54.4,253,35.2
		S264.8,0,264.8,0z"/>
	<path class="st3" d="M251.3,129.3c0,0,1.9-4.7,11.1-14.5c9.2-9.8,20.3-19.8,25.5-28.4c5.2-8.5,8.2-14.7,9.2-22.3
		c0,0,4.8,18-11.2,36.5C270,119.2,259.5,119.5,251.3,129.3z"/>
	<path class="st1" d="M280.3,136c0,0,1.1,8.5-8.5,15.4s-28.7,5.7-32.7,13.6c0,0,14.3-3.2,24.3-2.7c10,0.5,25.9-7,20.9-30.1l-4-1.8
		L280.3,136z"/>
	<path class="st4" d="M233.5,180.5c0,0,20.2-3.3,32.9-15.4c12.6-12,36.9-34,59.8-30.3c0,0-19.2,5.3-29.9,13s-19.9,21.1-27,25.4
		C262.3,177.6,254.4,184.3,233.5,180.5z"/>
	<path class="st2" d="M310.9,86.4c0,0-10,7.4-15.8,16.6c-5.8,9.2-12.6,16.8-20.6,22.1c-7.9,5.4-14.7,8.7-20.5,16.7
		c-5.8,8-10.2,9.9-12.4,16c0,0,31.3-12.4,44.3-27.3S299.7,102.3,310.9,86.4z"/>
	<path class="st5" d="M251.7,81.4c-1.8,1.5-3.5,3.1-4.8,5c1.7,2.4,3.6,5.9,4.8,10.1c0.6-1.4,1.3-2.7,2.1-3.9
		C253.2,88.6,252.5,85,251.7,81.4z"/>
</g>
<ellipse class="st6" cx="120.8" cy="153.9" rx="120.8" ry="113.7"/>
<path class="st7" d="M241.7,152.6C241,90.4,187.1,40.2,120.8,40.2c-15.3,0-29.9,2.7-43.4,7.6c-0.3,3.5-0.5,7-0.5,10.5
	c0,60.4,49,109.4,109.4,109.4C206.5,167.7,225.4,162.2,241.7,152.6z"/>
<g>
	<defs>
		<ellipse id="SVGID_1_" cx="120.8" cy="153.9" rx="120.8" ry="113.7"/>
	</defs>
	<clipPath id="SVGID_2_">
		<use xlink:href="#SVGID_1_"  style="overflow:visible;"/>
	</clipPath>
	<path class="st8" d="M63.3,157.3c-13.3,10.5-42.7,25.7-45.1,27.4s13.4,47.8,14.9,75.4s1.8,46.7,1.8,46.7s19.6-12.1,52.7-14.7
		c12.1-0.9,23.8,1.2,34.8,6.2c6.6,3,14.8,9.7,22.5,8.5c-2.9,0.5-6.2-22.2-6.4-24.6c-1.5-18.2,2.7-36,2.8-54.1c0-3,1.4-13.3-0.6-15.8
		c0,0,24,33.7,40.9,37.6c4.8,1.1,12.6-21.6,8.9-60.2l-2.8-7.1l-21.5-6.8c0,0-0.7,10.5-0.2,13.8c0,0-6.1-11-7.5-12.6
		c-1.4-1.6-25.2-9.6-37.4-14l-29.6-6.8L63.3,157.3z"/>
	<path class="st9" d="M48.6,300.6c-0.2,14.6,1.1-50.4,1-61.8c0-20.2-13.5-34.3-13.5-34.3S49.7,225.8,48.6,300.6z"/>
	<path class="st10" d="M121.5,81c0,0,3.5,4,5.9,9.8c0.6,1.6,0.2,3.3,0.5,5c0.4,1.8,1.8,3.7,2.1,5.5c1.1,6.3,1.6,11.8,1.6,11.8
		s-19.3,32-18.5,35.3c0.9,3.3,1.6,5.4,1.6,5.4l-46.1-3.1c0,0,1.6-3.5,2.1-12.9S79.8,64.8,121.5,81z"/>
	<path class="st11" d="M63,156.2c0.1-5.6-0.9-10.2,6.5-9.4c7.4,0.8,38.7,5.6,45.3,7c6.7,1.5,5.8,2,6.3,6c0.5,4-0.2,5.3-3.4,4.4
		s-10.8-4.3-29.1-6.7C71.2,155.2,62.9,159.6,63,156.2z"/>
	<path class="st10" d="M188.4,178c-0.8-6.4-4.3-10.7-6.3-19.3s-2.7-15.6-2.7-15.6l1.1-9.2l-6.3-7.5l-8.5,15.7
		c1.5,3.4,2.4,10.3,1.1,15.9c-1.3,5.6-0.9,13.7-0.9,13.7L188.4,178z"/>
	<path class="st9" d="M183.2,225.5c0,0-6.6-18.6-17.2-35.9C166,189.6,184.6,207.5,183.2,225.5z"/>
	<path class="st12" d="M161.3,109.6c0-0.8,0.5-1,0.9-1c0.4,0,15.2,0,15.6,0c0.5,0,0.5,0.3,0.5,0.5s-1.2,32.1-1.2,32.5
		c0,0.4-0.5,1.2-1.1,1.2s-13,0-13.7,0s-2.2-1.1-2.2-2.5S161.3,110.1,161.3,109.6z"/>
	<path class="st13" d="M178.3,108.8c0.1,0.1,0.1,0.3,0.1,0.4c0,0.2-1.2,32.1-1.2,32.5c0,0.3-0.3,0.9-0.7,1.1l0,0
		c1.4-0.8,1.5-1,1.5-1.3c0-0.4,1.2-31.5,1.2-31.8C179.1,109.3,178.7,109.1,178.3,108.8z"/>
	<path class="st14" d="M170.8,110.2h-2.6c-0.1,0-0.1-0.1-0.1-0.1l0,0c0-0.1,0.1-0.1,0.1-0.1h2.6c0.1,0,0.1,0.1,0.1,0.1l0,0
		C170.9,110.1,170.8,110.2,170.8,110.2z"/>
	<circle class="st15" cx="167.3" cy="110" r="0.3"/>
	<polygon class="st16" points="162.1,111.5 177.6,111.5 176.7,138.4 161,138.4 	"/>
	<polygon class="st13" points="161.9,111.3 177.6,111.3 177.6,111.5 162.1,111.5 161,138.4 160.8,138.4 	"/>
	<g class="st13">
		<defs>
			<polygon id="SVGID_3_" points="162.1,111.5 177.6,111.5 176.7,138.4 161,138.4 			"/>
		</defs>
		<use xlink:href="#SVGID_3_"  style="overflow:visible;fill:#1795A2;"/>
		<clipPath id="SVGID_4_">
			<use xlink:href="#SVGID_3_"  style="overflow:visible;"/>
		</clipPath>
		<path class="st17" d="M177,126.5c0,0.1-0.1,0.3-0.1,0.5C176.9,126.9,177,126.7,177,126.5z"/>
		<polygon class="st18" points="175.2,122.9 175.1,122.9 175.2,122.9 		"/>
		<path class="st18" d="M175.5,123.2C175.5,123.2,175.5,123.2,175.5,123.2c0,0-0.1-0.1-0.1-0.1C175.5,123.1,175.5,123.1,175.5,123.2
			z"/>
		<path class="st18" d="M171.3,126.1l-3.8,2.2l0,0L171.3,126.1C171.3,126.1,171.3,126.1,171.3,126.1z"/>
		<polygon class="st18" points="169.7,119.7 169.7,119.7 169.6,119.7 169.6,119.7 		"/>
		<polygon class="st19" points="165.1,122.4 165.1,122.4 165.1,122.4 165.1,122.4 		"/>
		<path class="st17" d="M160.1,143.6L160.1,143.6l0.1,0.1l15.6,6.9l0,0l0.2-0.1l0.1,0l0.1,0l-15.6-6.9l0,0l0,0l0,0l-4.6-2.6
			l-0.3-0.2l-0.1,0c0,0,0,0-0.1-0.1c-0.1-0.1-0.1-0.1-0.2-0.2c0,0,0,0,0,0c-0.5-0.6-0.9-1.5-0.9-2.4c0,0,0-0.1,0-0.1
			c0-1,0.4-1.8,0.9-2.5c0,0,0.1-0.1,0.1-0.1h0c0,0,0,0,0,0l0,0l0.4-0.2l11.6-6.7l0,0l3.8-2.2c0,0,0.1-0.1,0.2-0.2c0,0,0,0,0-0.1
			c0-0.1,0-0.1,0-0.2c0,0,0,0,0-0.1l0,0l-0.1-0.1l-0.3-0.2l-5.3-3.1l-0.3-0.2l-0.1,0c0,0,0,0-0.1-0.1c-0.1-0.1-0.1-0.1-0.2-0.2
			c0,0,0,0,0,0c-0.5-0.6-0.9-1.5-0.9-2.4c0,0,0-0.1,0-0.1c0-1,0.4-1.8,0.9-2.5c0,0,0.1-0.1,0.1-0.1h0c0,0,0,0,0,0l0,0l0.4-0.2
			l11.5-6.6l0.1-0.1l0,0l-0.2-0.1l-0.1-0.1l-0.1,0.1l-11.9,6.9c0,0,0,0,0,0l0,0l0,0c0,0,0,0,0,0c-0.7,0.7-1.1,1.7-1.1,2.8
			c0,0.4,0.1,0.8,0.2,1.2c0,0,0,0,0,0c0.1,0.2,0.1,0.4,0.2,0.6c0.2,0.4,0.4,0.7,0.7,1.1l0.4,0.2l0,0l0,0l4,2.3l1.7,1l0,0l0,0
			l0.1,0.1l0,0l-11.9,6.9l-0.1,0.1l0,0l0,0l0,0l-3.9,2.2c0,0,0,0,0,0l0,0l0,0c0,0,0,0,0,0c-0.7,0.7-1.1,1.7-1.1,2.8
			c0,0.4,0.1,0.8,0.2,1.2c0,0,0,0,0,0c0.1,0.2,0.1,0.4,0.2,0.6c0.2,0.4,0.4,0.7,0.7,1.1L160.1,143.6z M171.4,125.9L171.4,125.9
			L171.4,125.9L171.4,125.9z"/>
		<path class="st20" d="M176.5,127.8c-0.1,0.2-0.2,0.3-0.3,0.4c-0.2,0.3-0.4,0.4-0.4,0.4l0,0l-15.8,9.1l0,0l0.1,0.1l0,0h0l0,0
			l11.9-6.9l0,0l3.9-2.3C176,128.8,176.4,128.3,176.5,127.8c0.2-0.1,0.3-0.5,0.3-0.8c0.1-0.2,0.1-0.4,0.1-0.5c0,0,0-0.1,0-0.1
			s0,0,0,0C177,126.7,176.8,127.3,176.5,127.8C176.6,127.8,176.6,127.8,176.5,127.8z"/>
		<path class="st20" d="M171.4,125.9c0,0.1-0.1,0.2-0.2,0.2c0,0,0,0,0,0l-3.8,2.2l-11.6,6.7l-0.4,0.2l0,0c0,0,0,0,0,0h0
			c0,0-0.1,0.1-0.1,0.1c-0.6,0.7-0.9,1.5-0.9,2.5c0,0,0,0.1,0,0.1c0,0.9,0.3,1.7,0.9,2.4c0,0,0,0,0,0c0,0,0.1,0.1,0.1,0.1
			c-0.3-0.4-0.9-1.3-0.9-2.6c0-0.1,0-0.1,0-0.2c0-0.7,0.3-1.4,0.7-1.9c0.1-0.1,0.1-0.2,0.2-0.3l0,0v0l0,0l0,0l0,0c0,0,0,0,0,0l0.1,0
			l4-2.3l11.7-6.7l0.1-0.1C171.5,126.1,171.5,126.1,171.4,125.9C171.5,125.9,171.5,125.8,171.4,125.9c0-0.2,0-0.3,0-0.3s0,0,0,0
			C171.4,125.7,171.4,125.7,171.4,125.9C171.4,125.8,171.4,125.9,171.4,125.9z"/>
		<polygon class="st20" points="159.7,137.6 159.7,137.6 159.7,137.6 159.7,137.6 		"/>
		<polygon class="st20" points="155.1,135 155.1,135 155.1,135 155.1,135 		"/>
		<polygon class="st20" points="181.7,112.5 181.7,112.5 181.7,112.5 181.7,112.3 181.6,112.4 169.6,119.3 169.6,119.3 169.8,119.3 
			169.8,119.4 169.8,119.4 169.8,119.3 		"/>
		<path class="st17" d="M169.8,119.3l-0.1-0.1l0,0l11.9-6.9l0.1-0.1l0,0l0,0l-0.2-0.1l-0.1,0l-0.1,0l-0.1,0.1l0,0l0,0l-11.9,6.9h0
			l0,0c0,0,0,0,0,0c0,0,0,0,0,0c0,0,0,0,0,0.1c0,0,0,0,0,0c0,0,0,0,0,0c0,0,0,0.1,0,0.1c0,0.1,0,0.1,0.1,0.2l0,0l0.1,0.1l0.2,0.1
			l0.1,0.1l0,0l0,0l5.4,3.2l0,0c0,0,0.2,0.1,0.2,0.1l0.1,0c0,0,0,0,0.1,0.1c0,0,0,0,0,0c0.3,0.3,0.6,0.7,0.6,0.7s0,0,0,0
			c0.3,0.5,0.5,1.2,0.5,1.8c0,0,0,0.1,0,0.1c0,1-0.4,1.8-0.9,2.5c0,0-0.1,0.1-0.1,0.1l0,0c0,0,0,0,0,0l0,0l-0.4,0.2l-3.6,2.1l-8,4.6
			l0,0l-3.9,2.2h0l0,0c0,0,0,0,0,0c0,0,0,0,0,0c0,0,0,0,0,0.1c0,0,0,0,0,0c0,0,0,0,0,0c0,0,0,0.1,0,0.1c0,0.1,0,0.1,0.1,0.2l0,0
			l0.1,0.1l4.9,2.8l0,0l0.1,0.1l15.6,6.9l0,0l0,0l-2.4-0.1l0.1-0.1l-12.3-6.4l0,0l0,0l-5.7-3.3h0l0,0l-0.1-0.1l0,0l12-7l0,0l3.8-2.2
			c0,0,0.2-0.2,0.4-0.4c0.1-0.2,0.2-0.3,0.3-0.5c0.2-0.5,0.4-1.1,0.4-1.3c0-0.2,0.1-0.5,0.1-0.7c0-0.4-0.1-0.8-0.2-1.2c0,0,0,0,0,0
			c-0.1-0.2-0.1-0.4-0.2-0.6c-0.2-0.4-0.4-0.7-0.7-1.1l-0.4-0.2l0,0L169.8,119.3L169.8,119.3L169.8,119.3z M169.3,119.2L169.3,119.2
			L169.3,119.2L169.3,119.2z M159.7,137.8L159.7,137.8L159.7,137.8L159.7,137.8z"/>
		<path class="st20" d="M165.5,116.4l-0.4,0.2l0,0c0,0,0,0,0,0h0c0,0-0.1,0.1-0.1,0.1c-0.6,0.7-0.9,1.5-0.9,2.5c0,0,0,0.1,0,0.1
			c0,0.9,0.3,1.7,0.9,2.4c0,0,0,0,0,0c0,0,0.1,0.1,0.1,0.1c-0.3-0.4-0.9-1.3-0.9-2.6c0-0.1,0-0.1,0-0.2c0-0.7,0.3-1.4,0.7-1.9
			c0.1-0.1,0.1-0.2,0.2-0.3l0,0v0l0,0l0,0l0,0c0,0,0,0,0,0l0.1,0l11.9-6.9l0,0l0,0v-0.1v0h0l0,0l-0.1,0.1L165.5,116.4z"/>
		<path class="st20" d="M169.2,119.2L169.2,119.2L169.2,119.2c0,0.1,0,0.1,0,0.2c0,0.1,0,0.2,0.1,0.3h0v0l0,0l5.7,3.3l0.1,0.1
			c0,0,0.1,0.1,0.3,0.2c0.1,0.1,0.3,0.3,0.4,0.4c0.1,0.1,0.2,0.2,0.2,0.2c0,0,0,0,0,0s-0.2-0.4-0.6-0.7c0,0,0,0,0,0
			c0,0-0.1-0.1-0.1-0.1c0,0,0,0,0,0c-0.1,0-0.2-0.1-0.2-0.1c0,0,0,0,0,0l0,0l-5.4-3.2l0,0l-0.1-0.1l-0.2-0.1l-0.1-0.1l0,0
			c0-0.1-0.1-0.1-0.1-0.2C169.2,119.3,169.2,119.2,169.2,119.2C169.2,119.2,169.2,119.2,169.2,119.2
			C169.2,119.2,169.2,119.2,169.2,119.2C169.2,119.1,169.2,119.1,169.2,119.2C169.2,119.1,169.2,119.1,169.2,119.2L169.2,119.2z"/>
		<path class="st20" d="M165.1,122.4L165.1,122.4l-0.4-0.2c-0.3-0.3-0.5-0.7-0.7-1.1c0.1,0.2,0.1,0.3,0.2,0.4
			c0.1,0.2,0.4,0.6,0.6,0.8c0.1,0.1,2.9,1.7,5.7,3.3c0,0,0.4,0.2,0.5,0.3l0.1-0.1l-1.9-1.1L165.1,122.4z"/>
		<polygon class="st20" points="169.3,119.1 169.3,119.1 169.3,119.1 169.3,119.1 		"/>
		<polygon class="st20" points="164.7,116.4 164.7,116.4 164.7,116.4 164.7,116.4 		"/>
		<path class="st18" d="M180.2,148l-15.6-6.9l0,0l0,0v0l-5-2.9l0,0v0h0c-0.1-0.1-0.1-0.2-0.1-0.3c0-0.1,0-0.1,0-0.2l0,0l0,0h0
			c0,0,0,0,0-0.1c0,0,0,0,0,0c0,0,0,0,0,0l0,0l0,0l0,0h0l3.9-2.2l8-4.6l3.6-2.1l0.4-0.2l0,0c0,0,0,0,0,0l0,0c0,0,0.1-0.1,0.1-0.1
			c0.6-0.7,0.9-1.5,0.9-2.5c0,0,0-0.1,0-0.1c0-0.7-0.2-1.3-0.5-1.8c0,0-0.1-0.1-0.2-0.2c-0.1-0.1-0.3-0.3-0.4-0.4
			c-0.2-0.2-0.3-0.2-0.3-0.2L175,123l-5.7-3.3l0,0v0h0c-0.1-0.1-0.1-0.2-0.1-0.3c0-0.1,0-0.1,0-0.2l0,0l0,0h0c0,0,0,0,0-0.1
			c0,0,0,0,0,0c0,0,0,0,0,0l0,0l0,0l0,0h0l11.9-6.9l0,0l-4.1-2.3l0,0l-11.9,6.9l0,0l-0.1,0c0,0,0,0,0,0l0,0l0,0l0,0v0l0,0
			c-0.1,0.1-0.1,0.2-0.2,0.3c-0.4,0.6-0.6,1.2-0.7,1.9c0,0.1,0,0.1,0,0.2c-0.1,1.3,0.5,2.2,0.9,2.6c0,0,0,0,0,0c0,0,0.1,0.1,0.1,0.1
			c0,0,0,0,0.1,0.1l0.1,0l0.3,0.2l5.3,3.1l0.3,0.2l0.1,0.1l0,0c0,0,0,0,0,0.1c0,0,0,0,0,0s0.1,0.1,0.1,0.2c0,0,0,0.1,0,0.1
			c0,0.1,0,0.2,0,0.2l-0.1,0.1l-11.7,6.7l0,0l-4,2.3l0,0l-0.1,0c0,0,0,0,0,0l0,0l0,0l0,0v0l0,0c-0.1,0.1-0.1,0.2-0.2,0.3
			c-0.4,0.6-0.6,1.2-0.7,1.9c0,0.1,0,0.1,0,0.2c-0.1,1.3,0.5,2.2,0.9,2.6c0,0,0,0,0,0c0,0,0.1,0.1,0.1,0.1c0,0,0,0,0.1,0.1l0.1,0
			l0.3,0.2l4.6,2.6l0,0l0,0l0,0l15.6,6.9l0,0v0.1v0.1v0l0,0l0.1,0l0.1,0l3.9-2.3l0.1-0.1v0l0,0l0,0L180.2,148z"/>
		<polygon class="st17" points="176.2,150.5 176.2,150.5 176.2,150.5 		"/>
		<path class="st20" d="M176.2,150.5L176.2,150.5L176.2,150.5l0-0.2l0,0l-0.1,0l-0.1,0l-0.2,0.1l0,0l-15.6-6.9l-0.1-0.1v0l-5-2.9
			c-0.3-0.3-0.5-0.7-0.7-1.1c0.1,0.2,0.1,0.3,0.2,0.4c0.1,0.2,0.4,0.6,0.6,0.8c0.1,0.1,2.4,1.4,4.9,2.9v0l15.6,6.9l0.1,0.1l0,0l0,0
			l0.1-0.1L176.2,150.5L176.2,150.5L176.2,150.5L176.2,150.5z"/>
		<path class="st20" d="M180.4,147.9L180.4,147.9L180.4,147.9l-15.7-6.9l-0.1-0.1l0,0l-4.9-2.8l-0.1-0.1l0,0c0-0.1-0.1-0.1-0.1-0.2
			c0,0,0-0.1,0-0.1c0,0,0,0,0,0c0,0,0,0,0,0c0,0,0,0,0-0.1c0,0,0,0,0,0.1h0l0,0l0,0c0,0.1,0,0.1,0,0.2c0,0.1,0,0.2,0.1,0.3h0v0l0,0
			l5,2.9v0l0,0l0,0l15.6,6.9l0.1,0.1l0,0l0.1-0.1l0,0l0.2-0.1l0,0l-2.6-0.2l0,0l-0.1,0.1L180.4,147.9z"/>
		<path class="st21" d="M179,111.3C179,111.3,179,111.3,179,111.3c-0.1-0.1-0.1-0.2,0-0.2l0.3-0.1c0,0,0.1,0,0.1,0c0,0,0,0.1,0,0.1
			L179,111.3C179.1,111.3,179,111.3,179,111.3z"/>
		<path class="st21" d="M178.5,149.2C178.5,149.2,178.5,149.2,178.5,149.2l-0.3-0.2c0,0-0.1-0.1,0-0.1c0,0,0.1-0.1,0.1,0l0.3,0.1
			C178.6,149.1,178.6,149.2,178.5,149.2C178.6,149.2,178.5,149.2,178.5,149.2z"/>
	</g>
	<path class="st10" d="M178,133c-1.5-2.5-3.2-2.1-4.7-3.6c-1.5-1.5-1.6-6,0-6c0,0,2.5,2.9,5.5,4.8c3,1.9,4.2,3.7,2.7,8.3
		c-1.5,4.6-3.6,11.1-3,14.2"/>
	<g class="st13">
		<defs>
			<path id="SVGID_5_" d="M48.6,300.6c-0.2,14.6,1.1-50.4,1-61.8c0-20.2-13.5-34.3-13.5-34.3S49.7,225.8,48.6,300.6z M70.7,137.8
				c-0.4,9.4-2.1,12.9-2.1,12.9l46.1,3.1c0,0-0.7-2.1-1.6-5.4c-0.9-3.3,18.5-35.3,18.5-35.3s-0.5-5.4-1.6-11.8
				c-0.3-1.8-1.7-3.7-2.1-5.5c-0.4-1.8,0.1-3.5-0.5-5c-2.4-5.8-5.9-9.8-5.9-9.8C79.8,64.8,71.1,128.4,70.7,137.8z M74.4,137.3
				c2.8,0.6,5.7,0.5,8.5,0.9c12.5,1.5,26.8-2.5,31.3-15.5c1.6-4.5,0.7-7.1-0.7-11.7c-1.3-4.4,0.2-9.6,4.2-7.8s2.8,10.2-2.2,25.7
				s-2.4,19.6-2.4,19.6c3.8-3.9,8.5-6.7,13-9.6c2.7-1.7,6.4-3.4,7.4-6.8c0.8-2.7-0.4-5.7-0.9-8.4c-0.3-1.4-0.2-2.8-0.3-4.3
				c-0.2-2.1-0.4-4.2-0.8-6.3c-4.2,4.4-8.5,4.8-8.5,4.8c3.7-27.3-6.3-31.6-6.3-31.6c0.6,0.3,5-5.8,5.5-6.6c5.1-7.3,5.7-15.5-4-18.6
				c-11.2-3.6-23-0.2-33.9,2.7c-3.1,0.8-9.4,1.3-10.6,5c-0.6,1.8-3.2,13.7-0.3,13.8c-0.2,0-13.8-0.1-14.3,9.1
				c-0.5,8.9,5.1,18.7,7.9,26.9c1.6,4.6,3,9.3,3.5,14.2c0.2,1.9,0.3,2.9,1.2,3.5C72.4,136.7,73.2,137,74.4,137.3z M88.6,157.5
				c18.3,2.4,25.9,5.8,29.1,6.7s3.9-0.4,3.4-4.4c-0.5-4,0.4-4.6-6.3-6c-6.7-1.5-37.9-6.2-45.3-7c-7.4-0.8-6.4,3.8-6.5,9.4
				C62.9,159.6,71.2,155.2,88.6,157.5z"/>
		</defs>
		<clipPath id="SVGID_6_">
			<use xlink:href="#SVGID_5_"  style="overflow:visible;"/>
		</clipPath>
	</g>
	<path class="st9" d="M140.7,212.3c0,0,9.9-1.9,18.4,11c8.5,12.9,14.1,22.6,14.1,22.6C165.3,241.2,159.1,235.4,140.7,212.3z"/>
</g>
<path class="st22" d="M241.5,159.2c0,0,0.6-3.5-1.8-7.5c-2.4-4-6.2-6.6-8.8-18s-11.1-26.9-11.1-26.9S208.2,127.4,241.5,159.2z"/>
<path class="st4" d="M247.2,143.3c0.4-14-0.2-24.6-12.4-40.4s-16.2-33.5-16.2-33.5s-4.4,29.1,7.2,43.1
	C237.4,126.5,245.4,133.3,247.2,143.3z"/>
<g>
	<path class="st23" d="M149,25.2c0.1-0.1,0.1-0.1,0.2-0.2C149.2,25.1,149.1,25.1,149,25.2z"/>
	<path class="st23" d="M150,24.3c-0.1,0-0.1,0.1-0.2,0.1c0.1-0.1,0.2-0.2,0.4-0.3C150.1,24.2,150.1,24.3,150,24.3z"/>
	<path class="st24" d="M162.3,19c-4.7,0.5-8.8,3-12.7,5.9c2.5-1.9,5.6-2.9,9.1-2.8c11.3,0.2,27.6,7.3,26.4,27.8
		c-0.9,14.8-13.2,40-15.5,40.1c0.5,0.2,3.1-1.5,3.4-1.7c3.6-2.4,15.4-26.1,16.3-40.9c0.8-13.6-9.3-26.4-22.9-28.3
		C165,18.9,163.6,18.8,162.3,19z"/>
	<path class="st24" d="M172.2,62.3c-0.8,0.2-1.7,0.3-2.7,0.3c-7.4-0.2-14.7-7.8-16.3-17c-1-5.6,0.5-11.7,3.4-14.6
		c-5.7,1.6-9,9.2-7.6,17.1c1.6,9.2,8.9,16.8,16.3,17C168.1,65.2,170.4,64.1,172.2,62.3z"/>
	<path class="st25" d="M185.9,49.1c1.2-20.5-15.1-27.6-26.4-27.8c-3.5-0.1-6.6,1-9.1,2.8c-0.1,0-0.1,0.1-0.2,0.1
		c-0.1,0.1-0.2,0.2-0.4,0.3c-0.2,0.2-0.4,0.3-0.6,0.5c-0.1,0.1-0.1,0.1-0.2,0.2c-4.7,4.4-7,12.2-5.4,21.1c2.5,14.1,20.4,44,26,43.7
		C171.9,89.9,185,63.9,185.9,49.1z M166.9,63.4c-7.4-0.2-14.7-7.8-16.3-17c-1.4-8,1.9-14.5,7.5-16.1C159,30.1,160,30,161,30
		c7.4,0.2,15.3,5.4,16.3,17c0.5,5.8-0.7,10.7-3.5,13.6C172.1,62.4,169.8,63.5,166.9,63.4z"/>
</g>
<path class="st5" d="M87.8,263.2c7.4,1.8,11.7-10,12.3-21.7c1.7-28.9-24.6-62.9-8.1-99.5c12.4-27.4,19.4-61.3,9.1-81.9
	c-5.6,0.8-11.3,2.3-16.7,3.7c-3.1,0.8-9.4,1.3-10.6,5c-0.6,1.8-3.2,13.7-0.3,13.8c-0.2,0-13.8-0.1-14.3,9.1
	c-0.5,8.9,5.1,18.7,7.9,26.9c1.6,4.6,3,9.3,3.5,14.2c0.1,0.8,0.1,1.4,0.3,2c-0.1,1.3-0.2,2.3-0.3,3.1c-0.2,4-0.6,6.9-1,9
	c-0.1,0-0.2,0-0.3,0c-6.7-0.7-6.5,3-6.5,7.9l0.3,2.6c-13.3,10.5-42.7,25.7-45.1,27.4c-1.5,1.1,4.4,20.4,9.2,41.4
	C27.4,226.1,49.7,254,87.8,263.2z"/>
<path class="st26" d="M250.6,234.5c0.5-0.9,0.1-1.9-0.5-3.2c-1.2-2.4-3.7-5.5-6.7-5.3c-2.8,0.2-5.7,4.5-4.6,7.1c0.9,2.4,5.3,3,7.5,3
	c1.1,0,3.2-0.4,4.1-1.2C250.5,234.7,250.6,234.6,250.6,234.5z"/>
<path class="st27" d="M261.8,232.4c2.5,1,7.1,0.3,5.7-2.5c-1.3-2.5-7.1-2.8-7.2,0.7C260.2,231.4,260.8,232,261.8,232.4z"/>
<path class="st28" d="M278.3,237.7c-0.1-1.1,0.3-2,0.6-3c1.8,0,3.2-0.6,4.6,0.4c1,0.7,1.9,2.1,1.7,3.4c-0.5,3.1-7,1.8-7-0.4"/>
<path class="st26" d="M260.4,243.3c-0.3,0.1-1.2,0.2-1.5,0c-0.4-0.2-0.3-0.7,0-1c0.4-0.3,1-0.3,1.5-0.1
	C261,242.6,261.2,243.1,260.4,243.3z"/>
<path class="st29" d="M249.6,248c-1.3-1.6-1.6-2.6-4-2.4c-1.3,0.1-3.6,0.4-4,1.9C240.5,251.9,248.2,250.3,249.6,248z"/>
<path class="st30" d="M236.2,241.9c0-0.5-0.2-1-0.7-1.5c-0.6-0.6-1.8-0.7-2.6-0.7c-0.6,0-1.1,0.1-1.5,0.3c-1.3,0.6-1.5,2.1-0.5,3.6
	C231.8,245.1,236.1,243.9,236.2,241.9z"/>
<path class="st31" d="M231.6,250c0-0.1,0-0.2-0.2-0.4c-0.3-0.2-0.7-0.3-1-0.3c-0.3,0-0.6,0.1-0.8,0.4c-0.1,0.1-0.3,1.1-0.1,1.1
	c0.6,0.2,1.2,0.1,1.7-0.3C231.4,250.4,231.6,250.2,231.6,250z"/>
<path class="st27" d="M220.5,243.4c-0.5-0.7-0.3-1.4-1.2-1.4c-0.6,0-1.6-0.2-2.2,0.2c-0.2,0.1-0.5,0.6-0.5,0.9
	c0.1,0.5,1,0.4,1.4,0.5C219,243.8,219.4,243.7,220.5,243.4z"/>
<path class="st32" d="M165.1,124.2c0.1-0.2,0.3-0.4,0.4-0.5c0.2-0.3,0.1-0.6,0.1-0.9c0-0.4,0.1-0.9,0-1.3c-0.3-1.2-1.6-2.5-2.5-3.3
	c-0.6-0.5-1.2-1-1.9-1.4c0,0-1.2-0.8-1.5,1.1c-0.2,1.3-0.4,3,0.1,4.1c0,0.1,0,0.2-0.1,0.3c-0.2,1.4-0.5,3.4,0.3,4.5
	c0,0-0.3,0.9-0.3,1c0,0.4,0,0.8,0,1.2c0,0.5,0.1,1.3,0.6,1.7c0.6,0.5,1.5,0.1,2-0.3c0.6-0.5,0.6-1.2,1-1.9c0.2-0.4,0.4-0.5,0.8-0.7
	c0.6-0.2,0.8-0.2,1.1-0.9c0.2-0.5,0.2-1,0.1-1.6c0-0.3-0.2-0.7-0.2-1C164.9,124.4,165,124.3,165.1,124.2z"/>
<path class="st5" d="M159.6,117.9c-0.2,1.3-0.4,3,0.1,4.1c0,0.1,0,0.2-0.1,0.3c-0.2,1.4-0.5,3.4,0.3,4.5c0,0-0.3,0.9-0.3,1
	c0,0.4,0,0.8,0,1.2c0,0.5,0.1,1.3,0.6,1.7c0.3,0.2,0.6,0.2,0.9,0.2c0.6-1.5,0.9-13,0-14.2C161.1,116.7,159.9,116,159.6,117.9z"/>
<path class="st5" d="M168.3,164.1c0-4.1,0.4-6.9-0.8-10.8l0,0c-0.1,1.6-0.3,3.2-0.6,4.6c-1.3,5.6-0.9,13.7-0.9,13.7l3.2,0.8
	C169.2,170.3,168.3,166.8,168.3,164.1z"/>
<path class="st33" d="M170.2,171.8c-5.3-0.5-5.5-0.3-5.4,2s-0.9,3,0,3.9c0.8,0.9,23.5,12.2,25.7,11.9s0.1-7,0-9.8
	c-0.1-2.8-1.7-2.7-5.9-3.6C180.3,175.4,173.6,172.2,170.2,171.8z"/>
<circle class="st34" cx="80.9" cy="93.2" r="25"/>
<path class="st34" d="M132.7,123.7c-0.3-1.4-0.2-2.8-0.3-4.3c-0.2-2.1-0.4-4.2-0.8-6.3c-4.2,4.4-8.5,4.8-8.5,4.8
	c2.4-17.5-0.9-25.6-3.5-29.1c0-0.3,0.1-0.6,0.1-0.8c1.2-1.8,2-4,2.1-6.3c0-0.2,0-0.5,0-0.7c2.9-2.2,4.9-5.6,5-9.5
	c0.2-5.8-3.7-10.6-9-11.5c-2-1.9-4.6-3.1-7.6-3.1c-0.3,0-0.7,0-1,0.1c-1.8-1.7-4.1-2.7-6.6-2.9c-1.4-0.6-2.9-1-4.6-1
	c-1.2,0-2.3,0.2-3.3,0.5c-1-0.3-2.1-0.5-3.3-0.5c-2.2,0-4.4,0.7-6.2,1.9c-1.2,0.1-2.5,0.2-3.8,0.5c-1,0.2-1.9,0.5-2.9,0.8
	c-0.5-0.1-1-0.1-1.5-0.1c-4.1,0-7.8,2.4-10,5.8c-6.2,3.2-10.7,9-12.1,15.5c-2.5,4.2-3.5,9.1-2.8,14c0.3,2,0.9,3.9,1.8,5.6
	c0,0,0,0,0,0c0.8,5.3,3.7,9.7,7.8,12.6c1,2.7,2.6,5.1,4.7,7c0.3,0.7,0.5,1.4,0.8,2.1c1.6,4.6,3,9.3,3.5,14.2
	c0.2,1.9,0.3,2.9,1.2,3.5c0.5,0.4,1.3,0.7,2.6,1c2.8,0.6,5.7,0.5,8.5,0.9c12.5,1.5,26.8-2.5,31.3-15.5c1.6-4.5,0.7-7.1-0.7-11.7
	c-1.3-4.4,0.2-9.6,4.2-7.8s2.8,10.2-2.2,25.7c-5,15.5-2.4,19.6-2.4,19.6c3.8-3.9,8.5-6.7,13-9.6c2.7-1.7,6.4-3.4,7.4-6.8
	C134.4,129.3,133.2,126.3,132.7,123.7z"/>
</svg>
