<?xml version="1.0" encoding="utf-8"?>
<!-- Generator: Adobe Illustrator 22.0.1, SVG Export Plug-In . SVG Version: 6.00 Build 0)  -->
<svg version="1.1" id="Layer_1" xmlns="http://www.w3.org/2000/svg" xmlns:xlink="http://www.w3.org/1999/xlink" x="0px" y="0px"
	 viewBox="0 0 355.7 243.4" style="enable-background:new 0 0 355.7 243.4;" xml:space="preserve">
<style type="text/css">
	.st0{fill:#354146;}
	.st1{fill:#1795A2;}
	.st2{opacity:0.1;enable-background:new    ;}
	.st3{opacity:9.000000e-02;enable-background:new    ;}
	.st4{fill:#A9DAAA;}
	.st5{opacity:0.15;fill:none;stroke:#000000;stroke-miterlimit:10;}
	.st6{fill:#8AC9BA;}
	.st7{fill:#07074D;}
	.st8{fill:#AD8B74;}
	.st9{opacity:0.1;}
	.st10{fill:#6EA98B;}
	.st11{opacity:0.15;}
	.st12{fill:none;stroke:#000000;stroke-miterlimit:10;}
	.st13{fill:#3E8584;}
	.st14{fill:#7BBC9B;}
	.st15{fill:#CAE5EC;}
	.st16{fill:#24202E;}
	.st17{fill:#C0C2C5;}
	.st18{fill:#E3E3E3;}
	.st19{fill:#C9C8C7;}
	.st20{fill:#A09E9F;}
	.st21{fill:#BBBBBB;}
	.st22{fill:#B8B4B3;}
</style>
<g>
	<g>
		<g>
			<path class="st0" d="M259.4,34.6c0,0.4-0.1,0.8-0.4,1.1c-0.6,0.6-1.5,0.7-2.1,0.1c-1.4-1.2-3.1-1.9-5-1.8
				c-1.8,0.1-3.5,0.9-4.8,2.2c-1.2,1.4-1.9,3.1-1.8,5c0.1,1.8,0.9,3.5,2.2,4.8c0.6,0.6,0.7,1.5,0.1,2.1c-0.6,0.6-1.5,0.7-2.1,0.1
				c-1.9-1.8-3.1-4.2-3.2-6.9c-0.1-2.6,0.8-5.2,2.6-7.1c1.8-1.9,4.2-3.1,6.9-3.2c2.6-0.1,5.2,0.8,7.1,2.6
				C259.3,33.9,259.4,34.2,259.4,34.6z"/>
			<path class="st1" d="M281.5,4.5c-1.2,0.1-2.4,0.6-3.2,1.5l-12,13.1c-4.8-1.6-10.3-0.4-13.9,3.6c-4.9,5.4-4.6,13.8,0.8,18.7
				c5.4,4.9,13.8,4.6,18.7-0.8c3.6-4,4.4-9.6,2.4-14.2l1.7-1.9l2.2,0.6c1,0.3,1.9-0.7,1.5-1.7l-0.6-1.6c-0.1-0.2,0.1-0.4,0.3-0.4
				l1.7,0.5c1,0.3,1.9-0.7,1.5-1.7l-0.6-1.6c-0.1-0.2,0.1-0.4,0.3-0.4l1.7,0.5c1,0.3,1.9-0.7,1.5-1.7l-0.8-2.2l1.4-1.5
				c0.8-0.9,1.3-2.1,1.3-3.3l-0.1-2.4c0-1.9-1.6-3.4-3.5-3.2L281.5,4.5z"/>
			<path class="st2" d="M284.9,14.8l1.4-1.5c0.8-0.9,1.3-2.1,1.3-3.3l-0.1-2.4c0-1.9-1.6-3.4-3.5-3.2l-2.4,0.2
				c-1.2,0.1-2.4,0.6-3.2,1.5l-1.3,1.4c0.8-0.9,2-1.5,3.2-1.5l2.4-0.2c1.9-0.1,3.5,1.4,3.5,3.2l0.1,2.4c0,1.2-0.4,2.4-1.3,3.3"/>
			
				<ellipse transform="matrix(0.9272 -0.3747 0.3747 0.9272 7.2339 100.5098)" class="st3" cx="262.1" cy="31.6" rx="9.9" ry="9.9"/>
			<path class="st2" d="M281.8,10.9c0,0.2-0.1,0.4-0.2,0.5l-8.6,9.3c-0.3,0.3-0.7,0.3-1,0c-0.3-0.3-0.3-0.7,0-1l8.6-9.3
				c0.3-0.3,0.7-0.3,1,0C281.7,10.6,281.8,10.8,281.8,10.9z"/>
			<g>
				<path class="st0" d="M262.1,40.4c0.1,2.6-0.8,5.2-2.6,7.1c-3.7,4-10,4.3-14,0.6c-0.6-0.6-0.7-1.5-0.1-2.1
					c0.6-0.6,1.5-0.7,2.1-0.1c2.8,2.6,7.2,2.4,9.7-0.4c1.2-1.4,1.9-3.1,1.8-5c-0.1-1.8-0.9-3.5-2.2-4.8c-0.6-0.6-0.7-1.5-0.1-2.1
					c0.6-0.6,1.5-0.7,2.1-0.1C260.9,35.4,262,37.8,262.1,40.4z"/>
			</g>
		</g>
	</g>
	<g>
		<path class="st4" d="M44.4,138.7c-0.3-1-0.6-2-0.9-3c0-0.1,0-0.1,0-0.2c-0.3-1.1-0.7-2.3-1-3.5c0-0.2-0.1-0.3-0.1-0.5
			c-0.3-1.1-0.6-2.1-0.8-3.2c0-0.1-0.1-0.2-0.1-0.3c-2-7.9-3.7-16.1-5.8-24c0-0.2-0.1-0.3-0.1-0.5c-0.2-0.9-0.5-1.7-0.7-2.6
			c0,0,0,0,0,0l0,0c0,0-5.2-42.6-1.2-66.2c0,0,9.9,30.3,13.4,46.2c2.1,9.5,4.1,23.4,5.9,35.3c-0.1,4.5-0.1,9.1,0,13.6
			c0.5,13.4,4.7,31.5,7.9,43.8c-1.4-2.6-3-5.1-4.3-7.6c-3.4-6.6-6.9-13.2-9.7-20.1c-0.4-1-0.8-2-1.2-3.1c-0.1-0.3-0.2-0.6-0.3-0.9
			c-0.3-0.8-0.5-1.5-0.8-2.3C44.6,139.3,44.5,139,44.4,138.7z"/>
		<path class="st4" d="M64.7,187C64.7,187,64.7,187,64.7,187c0.1,0.2,0.1,0.4,0.1,0.4c0,0,0,0,0,0l0-0.1
			C64.8,187.3,64.7,187.2,64.7,187C64.7,187.1,64.7,187.1,64.7,187z"/>
	</g>
	<path class="st5" d="M33.8,35.1c0,0,6.9,25,5.9,37.5s1.7,30.2,6.9,48.9s15.3,50.7,18,61.6"/>
	<ellipse class="st1" cx="169.7" cy="129.5" rx="121.1" ry="113.9"/>
	<path class="st6" d="M52.3,101.3c26.4,35.9,68.8,59.1,116.8,59.1c48.5,0,91.4-23.8,117.7-60.4c-13.8-48.7-61-84.5-117-84.5
		C113.1,15.5,65.6,52,52.3,101.3z"/>
	<path class="st7" d="M163.1,0c-20.6,0-33.4,19.8-36.9,36.7c-3.5,16.9-13.9,20.4-24.1,26.3s-21.4,22.4-8,39.6s33.8,7.1,48.7-2.4
		c13.7-8.8,15.3-24.5,15.3-24.5l8.6,14.9l30.2,26.3c0,0-3.5-11.5-3.5-20.4s30,1.9,30-26.3c0-9.6-19.8-19.2-19.8-19.2
		S212.2,0,163.1,0z"/>
	<path class="st8" d="M154.7,77.9c0,7.9-4.2,14.3-4.2,14.3s-3.9,12,16.1,12s19-16.9,19-16.9s-7-2.4-7-9.3S154.7,77.9,154.7,77.9z"/>
	<path class="st9" d="M153.9,84.4c3.3,1.5,8,4.6,14.1,4.6c4.7,0,9.2-3.1,13-4.9c-1.3-1.4-2.3-3.4-2.3-6.1c0-6.9-23.9,0-23.9,0
		C154.7,80.3,154.4,82.4,153.9,84.4z"/>
	<path class="st8" d="M166.3,15l-23.4,7.1v27.3c0,16.7,11.8,34,23.4,34c11.6,0,23.4-17.3,23.4-34V23.4L166.3,15z"/>
	<path class="st7" d="M156.1,17.6c0,0,6,16.7-10.1,25.9s-20.2,8.6-20.2,8.6S123,16,154.9,9.7c16.5-3.3,28.2,0.6,35,10.1
		c6.4,8.8,8.5,22.6,9.1,32.3c0,0-10.1-19.7-20.8-26C167.5,19.8,168.1,24.2,156.1,17.6z"/>
	<g>
		<path class="st10" d="M274.8,186.4c0,0-0.5-46.1,28.8-65.8s50.9-28.4,52-44.9S342.2,53.8,329,52.9s-45.2,8.6-58.6,43.1
			C256.9,130.5,274.8,186.4,274.8,186.4z"/>
		<path class="st4" d="M274.8,186.4c0,0,10.3-20.1,23-36.4c12.7-16.3,24.5-26.9,23.6-6.9C320.5,163.1,302,178.9,274.8,186.4z"/>
		<g class="st11">
			<path class="st12" d="M337.2,68.9c-22.5,5.9-37.1,16.4-52.7,41.3c-15.6,24.9-9.8,76.2-9.8,76.2"/>
			<path class="st12" d="M294.9,73.9c0,0,6.7,4.3,4.8,16.4"/>
			<path class="st12" d="M332.9,85.2c0,0-7.3-10.6-17.1-7.8"/>
			<path class="st12" d="M298.4,112.1c0,0-5.1-4-13.8-1.9"/>
			<path class="st12" d="M270,119.7c0,0,7.2-0.2,8.1,6.1"/>
			<path class="st12" d="M274.8,186.4c0,0,21.5-14.7,39.6-42.7"/>
			<line class="st12" x1="317.8" y1="150.4" x2="310.1" y2="149.9"/>
			<line class="st12" x1="301.4" y1="152.7" x2="303.1" y2="159.1"/>
			<line class="st12" x1="307.9" y1="165.9" x2="297.8" y2="165.2"/>
		</g>
	</g>
	<g>
		<path class="st13" d="M0.4,57.4c0,0,22.1,11.6,29.9,30.2s9.8,41.1,16.8,58.8c2.8,6.9,6.3,13.5,9.7,20.1c3.3,6.4,8.9,13.4,8.1,21
			c-0.1,0.6-8.2-1.7-9-2c-7.2-3.4-13.5-11.3-18.8-17.1c-9.3-10.3-16.2-21.8-19.1-35.4c-2.9-13.6-2.7-27.7-7.1-41
			C6.9,79.5,0.4,57.4,0.4,57.4z"/>
		<path class="st14" d="M57.2,82.1c-1.8,0.6-5.1,25.4-4.3,47.7c0.8,22.3,11.9,57.7,11.9,57.7s7.6-14,5-47.8c-2.6-33.8-5-43.5-7-48.8
			C60.9,85.6,57.2,82.1,57.2,82.1z"/>
		<path class="st5" d="M0.4,57.4c0,0,17,16.8,22.6,35s9.1,37.6,13.3,50.5c4.2,12.8,13.9,34.9,28.6,44.6"/>
		<path class="st5" d="M57.2,82.1c0,0,6.5,18.9,5.3,32.2c-1.2,13.3-1.6,53.9,2.2,72.8"/>
	</g>
	<path class="st8" d="M82.6,208.7c4.7,4.5,9.7,8.7,15.1,12.5c8-14.5,15.5-29.1,18.4-38.6l-20.3-12.2
		C93.1,177.6,87.9,193.7,82.6,208.7z"/>
	<path class="st15" d="M211.7,96.8c-10.9-7.4-26-9.5-26-9.5s-0.7,13-16.5,13c-15.8,0-18.6-8.1-18.6-8.1s-23.2,5.3-28.8,10.2
		c-5.6,4.9-30.9,62.5-29.5,65c1.4,2.5,29.1,19.3,32,18.3c2.8-1.1,8.8-24.2,8.8-24.2s6.7,10.5,6.7,18.6c0,8.1-6.9,57.9-6.9,58
		c11.6,3.5,24,5.4,36.9,5.4c15.5,0,30.3-2.7,43.9-7.7c0-0.1-12.4-58.8-7.9-64.8c4.6-6,5.3-21.1,5.3-21.1l17.6,18.6
		c0,0,21.4-29.1,19.3-34.4C245.7,128.7,222.6,104.1,211.7,96.8z"/>
	<g>
		<path class="st8" d="M240.7,150.4c0,0,8.8,12.8,13.3,20.8c4.4,8,6.9,19.4,0,25.7c-6.9,6.4-25.5-28.5-25.5-28.5L240.7,150.4z"/>
		<path class="st9" d="M240.7,150.4c0,0,8.8,12.8,13.3,20.8c4.4,8,6.9,19.4,0,25.7c-6.9,6.4-25.5-28.5-25.5-28.5L240.7,150.4z"/>
		<path class="st9" d="M140.1,166.9c0,0,13.4,6.3,36.3,6.3s23.8-6.3,23.8-6.3s0.6,10.6-24.1,10.6S140.1,166.9,140.1,166.9z"/>
		<path class="st8" d="M162.7,144.6c0,0-9.9,0-12.9,0c-2.2,0-2.8,2.7-1.9,4.3c0.6,1.1,1.5,1.2,2.6,1.7c1.3,0.5,2.4,1.6,3.5,2.4
			c1.4,1,2.8,1.9,4.1,3c1.7,1.5,1.7,4.2,3.5,5.6c1.3,1.1,2.1,1.1,2.5,3c0.2,1.3,0.3,3.5,2,3.5c2.6,0,6.5,0,6.5,0l10.7-23.4H162.7z"
			/>
		<path class="st9" d="M162.7,144.6c0,0-9.9,0-12.9,0c-2.2,0-2.8,2.7-1.9,4.3c0.6,1.1,1.5,1.2,2.6,1.7c1.3,0.5,2.4,1.6,3.5,2.4
			c1.4,1,2.8,1.9,4.1,3c1.7,1.5,1.7,4.2,3.5,5.6c1.3,1.1,2.1,1.1,2.5,3c0.2,1.3,0.3,3.5,2,3.5c2.6,0,6.5,0,6.5,0l10.7-23.4H162.7z"
			/>
		<path class="st16" d="M156.7,144.6c0,0-2.4-15.7-2.8-18.3c-0.4-2.6,0.2-3.3,4.6-3.9s20.5-1.8,22.9-1.8c2.4,0,1.9,4.4,1.9,6.1
			c0,1.7,0.2,14.8,0.3,15.4c0.1,0.5,0.7,2.9,0.7,2.9L156.7,144.6z"/>
		<path class="st8" d="M258.1,189.2c0.5,14.1-12.9,16.1-39.2,0s-32.1-21.3-32.1-21.3s-11.9,0-14.2,0s-15.6-23.2-19.9-23.2
			c-4.3,0,28.3,0,30.5,0s-1.4-3.9,1.7-4.4c3-0.6,4.4,4,5.3,10.2s1.4,8.9,7.2,9.7c5.8,0.8,35.5,7.5,46.1,11.3
			S257.7,177.9,258.1,189.2z"/>
		<path class="st9" d="M92.3,167.3c0.5,0.9,4.7,3.8,9.8,7c5.4-18.8,21.1-61.2,27.9-75.7c-0.6,0-1.1,0.1-1.7,0.2
			c-2.8,1.1-5.1,2.3-6.5,3.5C116.2,107.3,90.9,164.9,92.3,167.3z"/>
		<path class="st9" d="M114.4,187.7c0.7-1.8,1.3-3.6,1.8-5.1l-20.3-12.2c-1.4,3.5-3.3,9-5.4,15.4L114.4,187.7z"/>
	</g>
	<path class="st4" d="M274.8,186.4c0,0-12.9-22-31.8-27.9s-22.1-9.8-17.6-11.7c4.4-1.9,9.2-5,17.9-4.4S265.8,150.4,274.8,186.4z"/>
	<path class="st5" d="M274.8,186.4c0,0-5.5-25.9-37.3-38.6"/>
	<line class="st5" x1="243.2" y1="145.6" x2="242.9" y2="150.2"/>
	<line class="st5" x1="253.5" y1="150.9" x2="254.7" y2="157.6"/>
	<g>
		<path class="st0" d="M262.1,40.4c0.1,2.6-0.8,5.2-2.6,7.1c-3.7,4-10,4.3-14,0.6c-0.6-0.6-0.7-1.5-0.1-2.1c0.6-0.6,1.5-0.7,2.1-0.1
			c2.8,2.6,7.2,2.4,9.7-0.4c1.2-1.4,1.9-3.1,1.8-5c-0.1-1.8-0.9-3.5-2.2-4.8c-0.6-0.6-0.7-1.5-0.1-2.1c0.6-0.6,1.5-0.7,2.1-0.1
			C260.9,35.4,262,37.8,262.1,40.4z"/>
	</g>
	<path class="st17" d="M286.7,217.6c0.2,0.5,0.7,0.9,1.6,1.2c1.5,0.5,3.6,1,4.8-0.3c0.4-0.4,0.5-0.5,0.4-1.2
		c-0.1-0.5-0.4-2.6-0.6-2.8c-0.6-0.5-3.4,0-4.1,0.1c-1.2,0.2-1.3,0.4-1.8,1.4C286.7,216.6,286.6,217.1,286.7,217.6z"/>
	<path class="st18" d="M285.1,221.9c-0.4-0.7-2.3-0.9-2.9-0.4c-0.3,0.2-0.4,0.6-0.1,1.2c0.4,1,3.1,0.8,3.1-0.4
		C285.2,222.2,285.1,222,285.1,221.9z"/>
	<path class="st19" d="M278.4,219.5c0.2-1.4-0.5-1.9-1.7-1.9c-1,0-2.4-0.3-2.6,1.1c-0.1,1.3,1.3,0.9,2.2,1
		C276.5,219.7,279.5,220.2,278.4,219.5z"/>
	<g>
		<path class="st20" d="M39.7,210.4c0.5-0.9,0.1-1.9-0.5-3.2c-1.2-2.4-3.7-5.5-6.7-5.4c-2.8,0.2-5.7,4.5-4.6,7.2
			c0.9,2.4,5.3,3,7.5,3c1.1,0,3.2-0.4,4.1-1.2C39.5,210.6,39.6,210.5,39.7,210.4z"/>
		<path class="st18" d="M23.3,217.5c2.5,1,7.1,0.3,5.7-2.5c-1.3-2.5-7.1-2.8-7.3,0.7C21.7,216.5,22.4,217.1,23.3,217.5z"/>
		<path class="st17" d="M43.7,217c-0.1-1.1,0.3-2,0.6-3c1.8,0,3.2-0.6,4.6,0.4c1,0.7,1.9,2.1,1.7,3.4c-0.5,3.1-7,1.8-7-0.4"/>
		<path class="st20" d="M46.7,224.9c-0.3,0.1-1.2,0.2-1.5,0c-0.4-0.2-0.3-0.7,0-1c0.4-0.3,1-0.3,1.5-0.1
			C47.3,224.1,47.5,224.6,46.7,224.9z"/>
		<path class="st19" d="M39.3,222.1c-1.3-1.6-1.6-2.6-4-2.4c-1.3,0.1-3.6,0.4-4,1.9C30.1,226,37.8,224.3,39.3,222.1z"/>
		<path class="st21" d="M56.6,205.9c0-0.5-0.2-1-0.7-1.5c-0.6-0.6-1.9-0.7-2.6-0.7c-0.6,0-1.1,0.1-1.5,0.3c-1.3,0.6-1.5,2.1-0.5,3.7
			C52.3,209.1,56.5,207.9,56.6,205.9z"/>
		<path class="st22" d="M63.9,222.8c0-0.1,0-0.3-0.2-0.4c-0.3-0.2-0.7-0.3-1-0.3c-0.3,0-0.6,0.1-0.8,0.4c-0.1,0.1-0.3,1.1-0.1,1.1
			c0.6,0.2,1.2,0.1,1.7-0.3C63.7,223.2,63.9,223,63.9,222.8z"/>
		<path class="st18" d="M16.9,221.7c-0.5-0.7-0.3-1.4-1.2-1.4c-0.6,0-1.7-0.2-2.2,0.2c-0.2,0.1-0.5,0.6-0.5,0.9
			c0.1,0.5,1,0.4,1.4,0.5C15.4,222.1,15.9,222,16.9,221.7z"/>
	</g>
</g>
</svg>
