<?xml version="1.0" encoding="utf-8"?>
<!-- Generator: Adobe Illustrator 22.0.1, SVG Export Plug-In . SVG Version: 6.00 Build 0)  -->
<svg version="1.1" id="Layer_1" xmlns="http://www.w3.org/2000/svg" xmlns:xlink="http://www.w3.org/1999/xlink" x="0px" y="0px"
	 viewBox="0 0 292 228.9" style="enable-background:new 0 0 292 228.9;" xml:space="preserve">
<style type="text/css">
	.st0{fill:#A9DAAA;}
	.st1{opacity:0.15;fill:none;stroke:#000000;stroke-miterlimit:10;}
	.st2{fill:#8AC9BA;}
	.st3{fill:#1795A2;}
	.st4{fill:#636363;}
	.st5{fill:#24202E;}
	.st6{fill:#EFE9ED;}
	.st7{fill:#F9DF16;}
	.st8{fill:#997C68;}
	.st9{fill:#FFF7E7;}
	.st10{fill:#07074D;}
	.st11{fill:#AD8B74;}
	.st12{opacity:0.1;}
	.st13{fill:#CAE5EC;}
	.st14{fill:none;}
	.st15{fill:#3E8584;}
	.st16{fill:#7BBC9B;}
	.st17{fill:#A09E9F;}
	.st18{fill:#E3E3E3;}
	.st19{fill:#C0C2C5;}
	.st20{fill:#C9C8C7;}
	.st21{fill:#BBBBBB;}
	.st22{fill:#B8B4B3;}
</style>
<g>
	<g>
		<path class="st0" d="M44.4,126.6c-0.3-1-0.6-2-0.9-3c0-0.1,0-0.1,0-0.2c-0.3-1.1-0.7-2.3-1-3.5c0-0.2-0.1-0.3-0.1-0.5
			c-0.3-1.1-0.6-2.1-0.8-3.2c0-0.1-0.1-0.2-0.1-0.3c-2-7.9-3.7-16.1-5.8-24c0-0.2-0.1-0.3-0.1-0.5c-0.2-0.9-0.5-1.7-0.7-2.6
			c0,0,0,0,0,0l0,0c0,0-5.2-42.6-1.2-66.2c0,0,9.9,30.3,13.4,46.2c2.1,9.5,4.1,23.4,5.9,35.3c-0.1,4.5-0.1,9.1,0,13.6
			c0.5,13.4,4.7,31.5,7.9,43.8c-1.4-2.6-3-5.1-4.3-7.6c-3.4-6.6-6.9-13.2-9.7-20.1c-0.4-1-0.8-2-1.2-3.1c-0.1-0.3-0.2-0.6-0.3-0.9
			c-0.3-0.8-0.5-1.5-0.8-2.3C44.6,127.2,44.5,126.9,44.4,126.6z"/>
		<path class="st0" d="M64.7,175C64.7,175,64.7,175,64.7,175c0.1,0.2,0.1,0.4,0.1,0.4c0,0,0,0,0,0l0-0.1
			C64.8,175.2,64.7,175.1,64.7,175C64.7,175,64.7,175,64.7,175z"/>
	</g>
	<path class="st1" d="M33.8,23.1c0,0,6.9,25,5.9,37.5s1.7,30.2,6.9,48.9s15.3,50.7,18,61.6"/>
	<path class="st2" d="M285.3,84.9L285.3,84.9C285.3,84.9,285.3,84.9,285.3,84.9c-1.3-4.6-2.9-9-4.8-13.4c0,0,0,0,0,0
		c-1.9-4.3-4-8.5-6.4-12.6c0,0,0,0,0-0.1c-2.4-4-5-7.9-7.9-11.6c0,0-0.1-0.1-0.1-0.1c-2.8-3.7-5.9-7.2-9.2-10.5
		c-0.1-0.1-0.1-0.1-0.2-0.2c-2.2-2.2-4.4-4.3-6.8-6.3c0,0,0,0,0,0c-1.1-1-2.3-1.9-3.5-2.9c-0.1-0.1-0.2-0.2-0.4-0.3
		c-1.2-0.9-2.4-1.8-3.6-2.7c0,0-0.1-0.1-0.1-0.1c-1.2-0.9-2.5-1.8-3.8-2.6c0,0-0.1-0.1-0.1-0.1c-1.2-0.8-2.5-1.6-3.8-2.4
		c-0.2-0.1-0.3-0.2-0.5-0.3c-1.3-0.8-2.5-1.5-3.8-2.3c-0.1-0.1-0.2-0.1-0.3-0.2c-1.3-0.7-2.6-1.4-3.9-2.1c-0.1,0-0.1-0.1-0.2-0.1
		c-1.3-0.7-2.7-1.3-4-2c-0.2-0.1-0.4-0.2-0.6-0.3c-1.3-0.6-2.7-1.2-4-1.8c-0.2-0.1-0.3-0.1-0.5-0.2c-1.3-0.6-2.7-1.1-4.1-1.6
		c-0.1,0-0.1-0.1-0.2-0.1c-1.4-0.5-2.8-1-4.2-1.5c-0.2-0.1-0.5-0.2-0.7-0.2c-1.4-0.5-2.8-0.9-4.2-1.3c-0.2-0.1-0.4-0.1-0.7-0.2
		c-1.4-0.4-2.8-0.8-4.3-1.1c-0.1,0-0.1,0-0.2-0.1c-1.5-0.4-2.9-0.7-4.4-1c-0.3-0.1-0.6-0.1-0.8-0.2c-1.4-0.3-2.9-0.6-4.4-0.8
		c-0.3,0-0.5-0.1-0.8-0.1c-1.5-0.2-3-0.4-4.5-0.6c-0.1,0-0.1,0-0.2,0c-1.5-0.2-3.1-0.3-4.6-0.5c-0.3,0-0.6,0-0.9-0.1
		c-1.5-0.1-3-0.2-4.5-0.3c-0.3,0-0.6,0-0.9,0C170.9,0,169.3,0,167.7,0c0,0,0,0,0,0c0,0,0,0,0,0c-1.6,0-3.2,0-4.8,0.1
		c-0.3,0-0.6,0-0.8,0c-1.5,0.1-3,0.2-4.5,0.3c-0.3,0-0.6,0-0.9,0.1c-1.5,0.1-3.1,0.3-4.6,0.5c-0.1,0-0.2,0-0.3,0
		c-1.5,0.2-2.9,0.4-4.4,0.6c-0.2,0-0.5,0.1-0.7,0.1c-1.5,0.2-2.9,0.5-4.4,0.8c-0.3,0.1-0.6,0.1-0.9,0.2c-1.5,0.3-2.9,0.6-4.4,1
		c-0.2,0-0.3,0.1-0.5,0.1c-1.4,0.3-2.8,0.7-4.2,1.1C132.2,5,132,5,131.8,5.1c-1.4,0.4-2.8,0.9-4.2,1.3c-0.3,0.1-0.5,0.2-0.8,0.3
		c-1.4,0.5-2.8,1-4.1,1.5c-0.2,0.1-0.4,0.1-0.6,0.2c-1.4,0.5-2.7,1-4,1.6c-0.1,0-0.2,0.1-0.3,0.1c-1.4,0.6-2.7,1.2-4,1.8
		c-0.2,0.1-0.5,0.2-0.7,0.3c-1.3,0.6-2.6,1.3-3.9,1.9c-0.2,0.1-0.4,0.2-0.6,0.3c-2.7,1.4-5.2,2.9-7.8,4.4c-0.2,0.1-0.4,0.2-0.6,0.4
		c-1.2,0.8-2.4,1.6-3.6,2.4c-0.2,0.1-0.4,0.3-0.6,0.4c-1.2,0.8-2.4,1.7-3.6,2.6c0,0,0,0,0,0c-1.2,0.9-2.4,1.8-3.5,2.7
		c-0.1,0.1-0.3,0.2-0.4,0.3c-1.1,0.9-2.2,1.8-3.3,2.8c-0.2,0.1-0.3,0.3-0.5,0.4c-1.1,1-2.2,2-3.3,3c0,0-0.1,0.1-0.1,0.1
		c-1.1,1-2.1,2-3.1,3.1c-0.1,0.1-0.2,0.2-0.2,0.2c-1,1-2,2.1-3,3.2c-0.1,0.1-0.3,0.3-0.4,0.4c-1,1.1-1.9,2.2-2.9,3.3
		c-0.1,0.1-0.1,0.2-0.2,0.2c-1,1.2-1.9,2.3-2.8,3.5c0,0,0,0-0.1,0.1c-0.9,1.2-1.8,2.4-2.6,3.6c-0.1,0.1-0.2,0.3-0.3,0.4
		c-0.8,1.2-1.6,2.4-2.4,3.6c-0.1,0.1-0.1,0.2-0.2,0.3c-1.6,2.5-3.1,5.1-4.5,7.8c-0.1,0.1-0.1,0.3-0.2,0.4c-0.7,1.3-1.3,2.6-1.9,3.9
		c-0.1,0.1-0.1,0.3-0.2,0.4c-1.3,2.7-2.4,5.5-3.5,8.3c0,0.1-0.1,0.2-0.1,0.3c-0.5,1.4-1,2.8-1.4,4.2c-0.1,0.2-0.1,0.3-0.1,0.5
		c-3.3,10.4-5,21.3-5,32.7c0,63.2,54.5,114.5,121.7,114.5s121.7-51.3,121.7-114.5C289.4,104.3,288,94.3,285.3,84.9z"/>
	<path class="st3" d="M46,115.8c0.8,62.6,54.9,113.1,121.7,113.1s120.9-50.5,121.7-113.1H46z"/>
	<path class="st4" d="M86.3,167.2c0-19.3,0-64.4,0-70.8c0-8.3,8.8-13.2,12.7-14.5c3.9-1.3,9-6.2,13.2-6.2c34.9,0,33.6,8.1,38.7,23
		c3.6,10.8,6.6,46.7,8,65.5c16.2-6.2,37.5-13.3,42.1-13.3c5.1,0,13.8,6,13.8,12.4s-9.8,17.2-15.4,20.4c-5.6,3.2-31.2,17.2-37,17.2
		c-5.8,0-72.3,0-72.3,0l-4-33.8L86.3,167.2z"/>
	<path class="st5" d="M204.3,62.3c3.2-4,5.4-2.7,6.8,0.6s2.4,4.9-0.8,8.4c-3.2,3.4-9.5,8.7-15.4,19.1c-5.9,10.4-16.3,24.8-16.3,24.8
		l-7.7-8.7c0,0,5.8-5.4,13.7-15.6c7.8-10.1,12.8-15.8,15.1-19.4C201.9,68,202.6,64.4,204.3,62.3z"/>
	<path class="st6" d="M156.3,100.1c0,0-8-2.1-11.4,4.4c-3.4,6.5-6.5,14.2-11.2,15.5s-20.1,5.2-23.2,12s-3.8,23.4,4.3,34.1
		c8.1,10.8,15.5,17.3,27.9,17.3s17.7-7.8,17.7-7.8L156.3,100.1z"/>
	<path class="st7" d="M155.9,99.9c7.6-0.7,14.1,1.1,20.3,8c6.2,6.9,11.8,23.5,4.7,31.7c-7.1,8.2-11.2,3.9-11.8,11.6
		c-0.6,7.8-2.8,25.5-13,27.5c-10.2,2.1-20.6-1.1-31.4-15s-12.9-31.7-3.5-38.9c9.4-7.2,14.1-3,21.5-9S149.5,100.5,155.9,99.9z"/>
	<path d="M159.2,121.7c-5.3,0-6.3,6-6.3,7.2c0,1.2,0.4,9.5,5.6,9.5s9-2.8,9-7.1S164.5,121.7,159.2,121.7z"/>
	<path class="st8" d="M196.6,84.2c-0.2-1.2-0.4-2.5-0.4-3.7c0.2-2.9,1.9-2.8,3.7-1.1c0.8,0.7,1.6,1.4,2,2.4c0.8,1.6,0.4,3.4,0.4,5.1
		c-0.1,4.2-0.4,5.3-3.3,7.1c-3.2,2-4.3,1.4-4.9,2.6c-0.7,1.2-13.2,18.7-13.2,18.7l-0.9-1.9c0,0,11.4-16.7,13.9-21.1
		c0.8-1.4,1.8-3.1,2.2-4.7C196.3,86.4,196.8,85.4,196.6,84.2z"/>
	<path class="st2" d="M171.2,169.8c-2.9,0-3-0.1-3,2.3s0,4.9,0,7.5c0,2.7-1.4,4.4-2.4,8.1c-1,3.6-1.3,4.4-1.3,10.7
		c0,6.3,0,16.1,0,16.1h12.9c0,0,0-20.2,0-23.4s-2.7-9.1-2.7-11.2c0-2.1,0-6,0-7.6c0-1.7,0.2-2.7-0.7-2.7
		C173.2,169.7,171.6,169.8,171.2,169.8z"/>
	<path class="st2" d="M184.1,217.5h5c1,0,1.8-0.9,1.8-2v-20.1c0-3.6-1.9-3.8-3.3-5s-1.1-8.2-1.1-10.9s0.2-2.7-3.2-2.7h0
		c-3.4,0-3.2,0-3.2,2.7s0.3,9.7-1.1,10.9c-1.4,1.2-3.3,1.4-3.3,5v20.1c0,1.1,0.8,2,1.8,2h5H184.1z"/>
	<path class="st9" d="M287.3,124.2l-9.6,0.1c0,0,1,8.9,4,13.5l10.3-3.4L287.3,124.2z"/>
	<path class="st10" d="M279.2,68.5c-1.5-3.3-3.2-6.5-5-9.6c0,0,0,0,0-0.1l-6-3.3c0,0-41.7-17.3-47.5-16.6
		c-5.8,0.6-2.5,10.7,4.3,18.1c6.8,7.4,19.3,17.1,32.8,17.1C267.7,74.2,275.7,70.5,279.2,68.5z"/>
	<path class="st11" d="M236.5,77.2c-8.3,0.3-10.4,2.6-10.4,9.8c0,7.3-0.4,73.5-0.4,73.5l9.7-6.4l1.7-45.9L236.5,77.2z"/>
	<path class="st12" d="M234.8,91.6c-3.5,6.2-6.5,12.5-8.8,19.1c-0.1,21.6-0.3,49.8-0.3,49.8l9.7-6.4l1.7-45.9l-0.4-21.5
		C236.2,88.5,235.5,90.2,234.8,91.6z"/>
	<path class="st11" d="M273.2,74.6c-4.3-0.2-11.1-4.6-12-6.3c-0.8-1.7-0.1-12.8-0.1-12.8l-25-11c0,0,0,6.2,0,13.7s2.5,13.4,7,13.4
		v31.8c0,0,3.5,1.7,11.8,0.7c8.3-1.1,18.1-9.8,18.1-9.8L273.2,74.6z"/>
	<path class="st13" d="M288.6,114.4c0,0-16.8-26.6-11.2-40.4c-4.1-0.4-6.6-0.3-6.6,4.2s1,15.1,0.1,16.2c-0.9,1.2-7.5,6.3-13.8,7.2
		c-6.3,0.9-12.2,0.9-12.2,0.9s-1.6,31.8-2.8,37.7c-1.2,5.9-1.3,10.6-5.2,11.6c-3.8,1-9.7,5.3-16.1,9c-6.3,3.7-23.1,13.4-23.1,21.2
		c0,7.8,18.7,4.4,18.7,4.4l15.5,2.2c0,0,4,4.9,12.2,7.1c1.7,0.5,4.4,1,7.5,1.4c17.5-15.7,30-36.3,35.1-59.4L288.6,114.4z"/>
	<path class="st11" d="M204,176.8c0,0,2.9,4.1,10.8,4.1s14.5-0.6,17.6,1.2c3,1.8,8.5,9.1,16.4,14.4c0,0-7.6,2.3-15.3,2.3
		s-7.7-9.5-9.2-10c-1.5-0.5-3.3,1.2-11.4,1.2S202.8,183.6,204,176.8z"/>
	<path class="st10" d="M229.8,90.7c0-10.9,4.5-16,4.5-16c0-9.5,1.6-11.1,1.8-16.9l0,0c0,0.1,0,0.2,0,0.3c0,7.5,2.5,13.4,7,13.4
		l0.4-0.1c0,0.9,0,1.9,0,2.9c0,8.2,5.8,16.4,5.8,27.5s-3.9,11.7-3.9,18.8c0,7.1,6.1,13.4,6.1,13.4c-4.4,4.1-10.8,6.8-16.6,1.2
		c-5.8-5.6-2.6-12.3-2.6-21.4C232.2,104.7,229.8,101.7,229.8,90.7z"/>
	<path class="st12" d="M236.1,53.7c0.8,0.5,1.6,1,2,1.3c5.7,3.9,12.3,6.6,19.1,7.9c1.1,0.2,2.4,0.3,3.6,0.2c0-3.6,0.3-7.6,0.3-7.6
		l-23.2-10.2c-0.2,0-0.5-0.1-0.7-0.1c-0.3,0-0.7-0.1-1.1-0.1C236.1,46.4,236.1,49.6,236.1,53.7z"/>
	<path class="st12" d="M105.9,185.2c-2.4-8.2-3.9-16.8-4.5-25.3c-1-15.6,1.1-31.3,6-46.1c2.4-7.3,5.6-14.4,9.4-21.1
		c1.9-3.4,4.3-5.4,2.7-9.3c-1.2-2.9-3.1-5.8-5.6-7.7c-0.6,0-1.1,0-1.7,0c-4.2,0-9.3,4.9-13.2,6.2c-3.9,1.3-12.7,6.2-12.7,14.5
		c0,6.5,0,51.5,0,70.8l-0.2,0v30.9c0.8,0.7,1.6,1.4,2.5,1.9c0.5,0.3,1,0.6,1.5,0.9c3.8,0,9.9,0,17,0
		C109.3,196.1,107.4,190.4,105.9,185.2z"/>
	<path class="st12" d="M175.4,188.9c-1.4,1.2-3.3,1.4-3.3,5v20.1c0,0.2,0,0.4,0.1,0.7h5.2c0,0,0-20.2,0-23.4c0-1.4-0.5-3.3-1.1-5.2
		C176.2,187.3,175.9,188.5,175.4,188.9z"/>
	<path class="st2" d="M184.1,217.5h5c1,0,1.8-0.9,1.8-2v-20.1c0-3.6-1.9-3.8-3.3-5s-1.1-8.2-1.1-10.9s0.2-2.7-3.2-2.7h0
		c-3.4,0-3.2,0-3.2,2.7s0.3,9.7-1.1,10.9c-1.4,1.2-3.3,1.4-3.3,5v20.1c0,1.1,0.8,2,1.8,2h5H184.1z"/>
	<path class="st13" d="M179.7,220c0-6.3-12.1-11.5-27-11.5c-14.9,0-27,5.1-27,11.5c0,0.7,0.2,1.5,0.5,2.2
		c12.9,4.4,26.9,6.8,41.4,6.8c0.6,0,1.2,0,1.8,0C175.7,226.8,179.7,223.6,179.7,220z"/>
	<ellipse class="st12" cx="152.7" cy="220" rx="17.3" ry="7.1"/>
	<path class="st14" d="M126.1,121.4c-3.5,5.1-2.9,12.2,0.2,17.6c3.1,5.4,8.3,9.2,13.8,12c17,8.9,38.2,9.4,55.7,1.3
		c-2.9,15.2-8.8,29.6-20,40.3c-1.9,1.7-3.8,3.4-6.1,4.5c-2.5,1.2-5.3,1.6-8.1,1.8c-16.5,1.2-33.4-6.8-43-20.2
		c-3.4-4.8-5.9-10.1-7.7-15.7c-1.6-5.1-2.6-10.3-2.9-15.6c-0.4-6,0.2-12.4,3.4-17.5C114.7,124.8,120.4,119.6,126.1,121.4z"/>
	<path class="st8" d="M149.5,45.6c0.4,2.9-1.4,6-0.3,7.4s2.7,6.4,2.7,7.3c0,0.9-3.9,0.8-3.9,0.8s0,3.5-1,5.2c-1,1.7-1.4,2.2-1.4,3.9
		c0,1.7,0.5,4.4-1,4.6c-1.6,0.1-8.1-0.8-9.8,0c-1.7,0.8-3.5,1-3.5,4.9c0,1.7,0.4,5,0.4,8.2c0,4.3-0.4,8.4-0.4,8.4
		s-20.2-18.5-19-20.7c1.2-2.2,2.2-3.9,2.4-9.5C114.9,60.6,131.8,38.6,149.5,45.6z"/>
	<path class="st10" d="M114.6,66.1c0-4.1-5.6-9.8-5.6-20s8-20.7,21.8-20.7s19.6,13.8,19.6,16.7c0,2.9-0.8,4.8-7.2,4.8
		s-3.3,3.3-5.9,4.8c-2.5,1.4-4.9,1.7-4.9,4.3s-0.6,2.5-1.4,2.5c-0.8,0-1.7-0.2-1.7-2.4c0-2.2-1.4-4-3-4c-1.6,0-3.8,5.7-4.7,8.7
		S117.7,66.1,114.6,66.1z"/>
	<path class="st12" d="M121,86.5c0.3-0.4,0.6-0.7,0.8-1.1c1.4-2.3,2-5,2.4-7.7c2.1-13.1-0.6-26.9-7.4-38.4c-1.2-1.9-2.3-3.8-3.4-5.8
		c-2.9,3.7-4.4,8.2-4.4,12.6c0,10.2,5.6,15.8,5.6,20c-0.2,5.6-1.2,7.3-2.4,9.5C111.7,76.7,116.2,81.7,121,86.5z"/>
	<path class="st13" d="M99,85.9c-10.1,0-11.2,9.1-11.2,15.7s0,14.2,0,14.2h24c0,0,0-10.1,0-15.7C111.8,94.5,109.5,85.9,99,85.9z"/>
	<path class="st12" d="M97.7,86c-8.9,0.8-9.8,9.4-9.8,15.7c0,6.6,0,14.2,0,14.2H101C104.2,106.1,103.4,94.5,97.7,86z"/>
	<path class="st8" d="M100.3,112c-9.4,0-10.2,3-10.2,3s4.3,29.6,5,34c0.7,4.5,2.3,5.5,8.9,4.6c6.6-0.9,38.4-6.7,43.8-6.7
		s9.6,0.5,12.3,0.5s4.4-4,4.4-4s1.2,0,2.6-0.6s2.9-6.1,2.6-7.8c-0.3-1.7-1.5,0.2-4.4,0.5s-9.3,0.2-9.3-0.8c0,0,2.5-1.8,5.8-1.7
		c0,0,0.5-1.1-0.8-1.8c-1.3-0.8-6,0.5-8.9,1.4s-3.3,2.1-5.2,2.5c-1.9,0.4-7.1,1-18.2,1.8s-18.1,0.2-18.1,0.2s-0.8-15.5-0.9-19.4
		C109.5,113.9,110.1,112,100.3,112z"/>
	<path class="st12" d="M100,132.2c1.1-6,3-11.9,2.6-18c0-0.7-0.1-1.4-0.3-2.1c-0.6,0-1.3,0-2,0c-9.4,0-10.2,3-10.2,3s4.3,29.6,5,34
		c0.7,4.5,2.3,5.5,8.9,4.6c0,0,0.1,0,0.1,0c-1-1.2-2-2.4-2.7-3.7C98.4,144.6,98.8,138.1,100,132.2z"/>
	<path class="st11" d="M204,176.8c0,0,2.9,4.1,10.8,4.1s14.5-0.6,17.6,1.2c3,1.8,8.5,9.1,16.4,14.4c0,0-7.6,2.3-15.3,2.3
		s-7.7-9.5-9.2-10c-1.5-0.5-3.3,1.2-11.4,1.2S202.8,183.6,204,176.8z"/>
	<path class="st13" d="M275.3,60.9c-0.4-0.7-0.7-1.3-1.1-1.9c0,0,0,0,0-0.1c-2.4-4-5-7.9-7.9-11.6c0,0-0.1-0.1-0.1-0.1
		c-2.8-3.7-5.9-7.2-9.2-10.5c-0.1-0.1-0.1-0.1-0.2-0.2c-2.2-2.2-4.4-4.3-6.8-6.3c0,0,0,0,0,0c-0.9-0.8-1.8-1.5-2.7-2.3
		c-2.5,1.1-4.9,2.8-7.6,4.8c-6.8,4.9-13,5.3-16.2,5.3c-3.2,0-3.8,1.7-1.4,1.7c7.1,0,15.6,9.9,27.3,16.2c7.8,4.2,15.7,4.6,23.5,4.8
		C273.7,60.6,274.5,60.7,275.3,60.9z"/>
	<path class="st11" d="M285.3,84.9L285.3,84.9C285.3,84.9,285.3,84.9,285.3,84.9c-0.9-3.2-2-6.4-3.2-9.5c-1.4-0.8-2.8-1.3-4.1-1.5
		c-3.5-0.4-4.5,0.8-4.5,4.7c0,3.9,1.2,10.5,1.2,12.6s2.6,6.2,4.6,8.8s2,8.2,3.3,12c1.3,3.8,2.9,4.9,3.3,9.2
		c0.4,4.3,1.2,10.9-1.4,13.1c-2.6,2.2-20.3,17.9-24.1,18.4c-3.8,0.5-6.4,0.9-7.2,2.5c-0.8,1.6,1.6,0.4,2.9,0.8
		c1.3,0.4,0.7,2-0.8,2.9c-1.4,0.9-2.5,2.4-2.5,3.9s5.1,1.4,9.3-2.5c4.2-3.9,5.3-6.4,9.9-8.3c2.9-1.1,8.9-4.7,13-7.2
		c2.9-9.7,4.4-20,4.4-30.6C289.4,104.3,288,94.3,285.3,84.9z"/>
	<path class="st5" d="M132.9,215.2c0-9.4-2-16.9-6.5-24.3c-4.5-7.4-4.2-10.2-5.4-11.6c-1.2-1.3-14.9-1.2-14.9-1.2s0-1.2,0-6.9
		c0-5.7-9.9-4.5-20.5-4.5c-13.4,0-14.3,1.8-14.3,4c0,2.2,0,6.9,0,6.9s-2.3,0-5.1,0.1c15,21.2,37.2,37.4,63.4,45.5
		C131.6,220.7,132.9,218,132.9,215.2z M77,177.1c-0.8-0.7-1.2-1.8-1.2-3.9c0-2,1.5-2.9,5.5-2.9s13.6,0,16.6,0s3.5,1.7,3.5,6.5
		C101.5,177,77.9,177.8,77,177.1z"/>
	<g>
		<path class="st15" d="M0.4,45.3c0,0,22.1,11.6,29.9,30.2s9.8,41.1,16.8,58.8c2.8,6.9,6.3,13.5,9.7,20.1c3.3,6.4,8.9,13.4,8.1,21
			c-0.1,0.6-8.2-1.7-9-2c-7.2-3.4-13.5-11.3-18.8-17.1C27.8,146,20.9,134.5,18,120.9c-2.9-13.6-2.7-27.7-7.1-41
			C6.9,67.4,0.4,45.3,0.4,45.3z"/>
		<path class="st16" d="M57.2,70c-1.8,0.6-5.1,25.4-4.3,47.7c0.8,22.3,11.9,57.7,11.9,57.7s7.6-14,5-47.8c-2.6-33.8-5-43.5-7-48.8
			C60.9,73.5,57.2,70,57.2,70z"/>
		<path class="st1" d="M0.4,45.3c0,0,17,16.8,22.6,35s9.1,37.6,13.3,50.5c4.2,12.8,13.9,34.9,28.6,44.6"/>
		<path class="st1" d="M57.2,70c0,0,6.5,18.9,5.3,32.2c-1.2,13.3-1.6,53.9,2.2,72.8"/>
	</g>
	<g>
		<path class="st17" d="M39.7,198.3c0.5-0.9,0.1-1.9-0.5-3.2c-1.2-2.4-3.7-5.5-6.7-5.4c-2.8,0.2-5.7,4.5-4.6,7.2
			c0.9,2.4,5.3,3,7.5,3c1.1,0,3.2-0.4,4.1-1.2C39.5,198.6,39.6,198.4,39.7,198.3z"/>
		<path class="st18" d="M23.3,205.4c2.5,1,7.1,0.3,5.7-2.5c-1.3-2.5-7.1-2.8-7.3,0.7C21.7,204.5,22.4,205,23.3,205.4z"/>
		<path class="st19" d="M43.7,205c-0.1-1.1,0.3-2,0.6-3c1.8,0,3.2-0.6,4.6,0.4c1,0.7,1.9,2.1,1.7,3.4c-0.5,3.1-7,1.8-7-0.4"/>
		<path class="st17" d="M46.7,212.8c-0.3,0.1-1.2,0.2-1.5,0c-0.4-0.2-0.3-0.7,0-1c0.4-0.3,1-0.3,1.5-0.1
			C47.3,212,47.5,212.6,46.7,212.8z"/>
		<path class="st20" d="M39.3,210c-1.3-1.6-1.6-2.6-4-2.4c-1.3,0.1-3.6,0.4-4,1.9C30.1,213.9,37.8,212.3,39.3,210z"/>
		<path class="st21" d="M56.6,193.8c0-0.5-0.2-1-0.7-1.5c-0.6-0.6-1.9-0.7-2.6-0.7c-0.6,0-1.1,0.1-1.5,0.3c-1.3,0.6-1.5,2.1-0.5,3.7
			C52.3,197,56.5,195.8,56.6,193.8z"/>
		<path class="st22" d="M63.9,210.7c0-0.1,0-0.3-0.2-0.4c-0.3-0.2-0.7-0.3-1-0.3c-0.3,0-0.6,0.1-0.8,0.4c-0.1,0.1-0.3,1.1-0.1,1.1
			c0.6,0.2,1.2,0.1,1.7-0.3C63.7,211.1,63.9,210.9,63.9,210.7z"/>
		<path class="st18" d="M16.9,209.7c-0.5-0.7-0.3-1.4-1.2-1.4c-0.6,0-1.7-0.2-2.2,0.2c-0.2,0.1-0.5,0.6-0.5,0.9
			c0.1,0.5,1,0.4,1.4,0.5C15.4,210,15.9,210,16.9,209.7z"/>
	</g>
</g>
</svg>
