<?xml version="1.0" encoding="utf-8"?>
<!-- Generator: Adobe Illustrator 22.0.1, SVG Export Plug-In . SVG Version: 6.00 Build 0)  -->
<svg version="1.1" id="Layer_1" xmlns="http://www.w3.org/2000/svg" xmlns:xlink="http://www.w3.org/1999/xlink" x="0px" y="0px"
	 viewBox="0 0 417.4 733.4" style="enable-background:new 0 0 417.4 733.4;" xml:space="preserve">
<style type="text/css">
	.st0{fill:#07074D;}
	.st1{fill:#0196A6;}
	.st2{fill:#0095A5;}
	.st3{fill:#07074F;}
	.st4{fill:#01596F;}
	.st5{fill:#017CAD;}
	.st6{fill:#88CBBA;}
	.st7{fill:#005A70;}
</style>
<path class="st0" d="M157.7,0c0,0-4.7,26.8-28.5,27.5c-23.8,0.7-43.1-8.5-50,6.2s-5.8,41.3,0,54c5.8,12.7,0,37.1-30.8,48.8
	s-48.8,6.8-48.8,6.8V0H157.7z"/>
<path class="st0" d="M173.4,37.3c-0.5-7.6,12.7-12.7,20-8.7c9.2,5,6.3,22-5.8,22.1C181.3,50.6,174,45.1,173.4,37.3z"/>
<path class="st1" d="M0,684.8c25.3-15.7,46.2-29.6,105.3-4.4s74.8-8.7,90.5-20s40-5.2,72.2,25.2c32.2,30.5,43.5,47.7,43.5,47.7H0
	V684.8z"/>
<path class="st2" d="M417.4,0.2v180c-14.1-6.4-28-25.1-22.1-73.2s-39.1-55.3-39.1-86.9c0-8,2.4-14.7,5.6-20"/>
<path class="st3" d="M171.2,325.7h-20.4c-6.6,0-12-5.4-12-12v-20.4c0-6.6,5.4-12,12-12h20.4c6.6,0,12,5.4,12,12v20.4
	C183.2,320.4,177.8,325.7,171.2,325.7z"/>
<path class="st4" d="M219.6,325.7h-20.4c-6.6,0-12-5.4-12-12v-20.4c0-6.6,5.4-12,12-12h20.4c6.6,0,12,5.4,12,12v20.4
	C231.6,320.4,226.2,325.7,219.6,325.7z"/>
<path class="st5" d="M268,325.7h-20.4c-6.6,0-12-5.4-12-12v-20.4c0-6.6,5.4-12,12-12H268c6.6,0,12,5.4,12,12v20.4
	C280,320.4,274.6,325.7,268,325.7z"/>
<path class="st2" d="M171.2,374.1h-20.4c-6.6,0-12-5.4-12-12v-20.4c0-6.6,5.4-12,12-12h20.4c6.6,0,12,5.4,12,12v20.4
	C183.2,368.7,177.8,374.1,171.2,374.1z"/>
<path class="st6" d="M219.6,374.1h-20.4c-6.6,0-12-5.4-12-12v-20.4c0-6.6,5.4-12,12-12h20.4c6.6,0,12,5.4,12,12v20.4
	C231.6,368.7,226.2,374.1,219.6,374.1z"/>
<path class="st7" d="M171.2,422.4h-20.4c-6.6,0-12-5.4-12-12v-20.4c0-6.6,5.4-12,12-12h20.4c6.6,0,12,5.4,12,12v20.4
	C183.2,417,177.8,422.4,171.2,422.4z"/>
<path class="st2" d="M268,422.4h-20.4c-6.6,0-12-5.4-12-12v-20.4c0-6.6,5.4-12,12-12H268c6.6,0,12,5.4,12,12v20.4
	C280,417,274.6,422.4,268,422.4z"/>
</svg>
